<svg xmlns="http://www.w3.org/2000/svg" xmlns:xlink="http://www.w3.org/1999/xlink" width="500" zoomAndPan="magnify" viewBox="0 0 375 374.999991" height="500" preserveAspectRatio="xMidYMid meet" version="1.0"><defs><g/><clipPath id="e16dd6b596"><path d="M 116 153.234375 L 263 153.234375 L 263 236 L 116 236 Z M 116 153.234375 " clip-rule="nonzero"/></clipPath><clipPath id="75ba7c1d34"><path d="M 130.945312 171.816406 L 163 171.816406 L 163 203 L 130.945312 203 Z M 130.945312 171.816406 " clip-rule="nonzero"/></clipPath><clipPath id="07af9bd351"><path d="M 156 187 L 172 187 L 172 203.316406 L 156 203.316406 Z M 156 187 " clip-rule="nonzero"/></clipPath></defs><g clip-path="url(#e16dd6b596)"><path fill="#fcd4e0" d="M 134.199219 199.121094 C 128.539062 192.714844 128.414062 179.316406 137.132812 174.464844 C 145.851562 169.613281 156.976562 172.261719 165.566406 177.332031 C 165.921875 164.683594 177.464844 153.398438 190.117188 153.332031 C 202.773438 153.265625 214.433594 164.429688 214.921875 177.074219 C 219.523438 172.867188 227.90625 172.214844 234.125 175.65625 C 240.234375 179.039062 243.117188 184.386719 242.398438 190.457031 C 251.074219 187.816406 265.199219 193.851562 262.457031 207.433594 C 258.757812 225.746094 233.136719 223.480469 233.136719 223.480469 C 233.136719 223.480469 226.929688 233.628906 209.683594 235.207031 C 198.375 236.242188 186.191406 232.257812 179.4375 225.640625 C 175.390625 230.246094 165.480469 232.808594 151.351562 229.789062 C 144.84375 228.398438 137.5 222.929688 139.96875 217.445312 C 120.214844 221.011719 115.207031 211.941406 116.101562 207.15625 C 118.019531 196.871094 134.199219 199.121094 134.199219 199.121094 Z M 134.199219 199.121094 " fill-opacity="1" fill-rule="nonzero"/></g><path fill="#f8b5c7" d="M 233.136719 223.480469 C 233.136719 223.480469 226.929688 233.628906 209.683594 235.207031 C 198.375 236.242188 186.191406 232.257812 179.4375 225.640625 C 175.390625 230.242188 165.480469 232.808594 151.351562 229.789062 C 144.84375 228.398438 137.5 222.929688 139.96875 217.445312 C 124.261719 220.28125 117.878906 215.125 116.371094 210.492188 C 121.863281 215.9375 138.199219 216.066406 146.277344 208.390625 C 146.277344 208.390625 147.9375 219.601562 162.601562 219.914062 C 175.492188 220.1875 182.488281 213.878906 182.488281 213.878906 C 182.488281 213.878906 210.300781 237.984375 233.136719 223.480469 Z M 233.136719 223.480469 " fill-opacity="1" fill-rule="nonzero"/><g clip-path="url(#75ba7c1d34)"><path fill="#9b85cd" d="M 146.878906 180.167969 C 146.925781 180.605469 147.011719 181.03125 147.132812 181.453125 C 147.25 181.871094 147.40625 182.28125 147.59375 182.675781 C 147.785156 183.070312 148.003906 183.445312 148.257812 183.800781 C 148.511719 184.15625 148.792969 184.492188 149.101562 184.800781 C 149.410156 185.109375 149.742188 185.390625 150.101562 185.644531 C 150.457031 185.894531 150.832031 186.117188 151.226562 186.304688 C 151.621094 186.496094 152.027344 186.648438 152.449219 186.769531 C 152.871094 186.890625 153.296875 186.972656 153.730469 187.019531 C 156.5 187.296875 159.273438 187.421875 162.054688 187.398438 C 159.273438 187.378906 156.5 187.503906 153.730469 187.78125 C 153.296875 187.828125 152.871094 187.910156 152.449219 188.03125 C 152.027344 188.152344 151.621094 188.304688 151.226562 188.496094 C 150.832031 188.683594 150.457031 188.902344 150.101562 189.15625 C 149.742188 189.410156 149.410156 189.691406 149.101562 190 C 148.792969 190.308594 148.511719 190.640625 148.257812 191 C 148.003906 191.355469 147.785156 191.730469 147.59375 192.125 C 147.40625 192.519531 147.25 192.925781 147.132812 193.347656 C 147.011719 193.769531 146.925781 194.195312 146.878906 194.632812 C 146.605469 197.398438 146.476562 200.171875 146.5 202.953125 C 146.523438 200.171875 146.398438 197.398438 146.121094 194.632812 C 146.074219 194.195312 145.988281 193.769531 145.871094 193.347656 C 145.75 192.925781 145.597656 192.519531 145.40625 192.125 C 145.21875 191.730469 144.996094 191.355469 144.742188 191 C 144.492188 190.640625 144.210938 190.308594 143.902344 190 C 143.59375 189.691406 143.257812 189.410156 142.902344 189.15625 C 142.546875 188.902344 142.167969 188.683594 141.773438 188.492188 C 141.378906 188.304688 140.972656 188.152344 140.554688 188.03125 C 140.132812 187.910156 139.703125 187.828125 139.269531 187.777344 C 136.503906 187.503906 133.726562 187.378906 130.945312 187.398438 C 133.726562 187.421875 136.503906 187.296875 139.269531 187.019531 C 139.703125 186.972656 140.132812 186.890625 140.554688 186.769531 C 140.972656 186.648438 141.378906 186.496094 141.773438 186.304688 C 142.167969 186.117188 142.546875 185.894531 142.902344 185.644531 C 143.257812 185.390625 143.589844 185.109375 143.902344 184.800781 C 144.210938 184.492188 144.492188 184.15625 144.742188 183.800781 C 144.996094 183.445312 145.21875 183.070312 145.40625 182.675781 C 145.59375 182.28125 145.75 181.871094 145.871094 181.453125 C 145.988281 181.03125 146.074219 180.605469 146.121094 180.167969 C 146.398438 177.402344 146.523438 174.628906 146.5 171.847656 C 146.476562 174.628906 146.605469 177.402344 146.878906 180.167969 Z M 146.878906 180.167969 " fill-opacity="1" fill-rule="nonzero"/></g><g clip-path="url(#07af9bd351)"><path fill="#9b85cd" d="M 164.246094 191.613281 C 164.292969 192.054688 164.414062 192.476562 164.605469 192.878906 C 164.800781 193.28125 165.054688 193.640625 165.367188 193.957031 C 165.683594 194.269531 166.042969 194.523438 166.445312 194.71875 C 166.847656 194.910156 167.269531 195.03125 167.710938 195.078125 C 169.113281 195.21875 170.515625 195.28125 171.925781 195.269531 C 170.515625 195.257812 169.113281 195.324219 167.710938 195.460938 C 167.269531 195.511719 166.847656 195.632812 166.445312 195.824219 C 166.042969 196.015625 165.683594 196.269531 165.367188 196.585938 C 165.054688 196.902344 164.800781 197.261719 164.605469 197.664062 C 164.414062 198.0625 164.292969 198.488281 164.246094 198.929688 C 164.105469 200.332031 164.042969 201.734375 164.054688 203.140625 C 164.066406 201.734375 164 200.332031 163.859375 198.929688 C 163.8125 198.488281 163.691406 198.0625 163.5 197.664062 C 163.308594 197.261719 163.054688 196.902344 162.738281 196.585938 C 162.421875 196.269531 162.0625 196.015625 161.660156 195.824219 C 161.257812 195.632812 160.835938 195.511719 160.394531 195.460938 C 158.992188 195.324219 157.589844 195.257812 156.183594 195.269531 C 157.589844 195.28125 158.992188 195.21875 160.394531 195.078125 C 160.835938 195.03125 161.257812 194.910156 161.660156 194.71875 C 162.0625 194.523438 162.421875 194.269531 162.738281 193.957031 C 163.054688 193.640625 163.308594 193.28125 163.5 192.878906 C 163.691406 192.476562 163.8125 192.054688 163.859375 191.613281 C 164 190.210938 164.066406 188.808594 164.054688 187.398438 C 164.042969 188.808594 164.105469 190.210938 164.246094 191.613281 Z M 164.246094 191.613281 " fill-opacity="1" fill-rule="nonzero"/></g><path fill="#9b85cd" d="M 158.328125 176.078125 C 158.359375 176.351562 158.433594 176.609375 158.550781 176.851562 C 158.667969 177.097656 158.824219 177.316406 159.015625 177.511719 C 159.207031 177.703125 159.425781 177.859375 159.671875 177.976562 C 159.917969 178.09375 160.175781 178.167969 160.445312 178.195312 C 161.300781 178.28125 162.15625 178.320312 163.015625 178.3125 C 162.15625 178.304688 161.300781 178.34375 160.445312 178.429688 C 160.175781 178.460938 159.917969 178.535156 159.671875 178.652344 C 159.425781 178.769531 159.207031 178.925781 159.015625 179.117188 C 158.824219 179.308594 158.667969 179.527344 158.550781 179.773438 C 158.433594 180.019531 158.359375 180.277344 158.328125 180.546875 C 158.242188 181.402344 158.203125 182.261719 158.210938 183.121094 C 158.21875 182.261719 158.179688 181.402344 158.09375 180.546875 C 158.066406 180.277344 157.992188 180.019531 157.875 179.773438 C 157.753906 179.527344 157.601562 179.308594 157.40625 179.117188 C 157.214844 178.925781 156.996094 178.769531 156.75 178.652344 C 156.507812 178.535156 156.246094 178.460938 155.976562 178.429688 C 155.121094 178.34375 154.265625 178.304688 153.40625 178.3125 C 154.265625 178.320312 155.121094 178.28125 155.976562 178.195312 C 156.246094 178.167969 156.503906 178.09375 156.75 177.976562 C 156.996094 177.859375 157.214844 177.703125 157.40625 177.511719 C 157.601562 177.316406 157.753906 177.097656 157.871094 176.851562 C 157.992188 176.609375 158.0625 176.351562 158.09375 176.078125 C 158.179688 175.222656 158.21875 174.367188 158.210938 173.507812 C 158.203125 174.367188 158.242188 175.222656 158.328125 176.078125 Z M 158.328125 176.078125 " fill-opacity="1" fill-rule="nonzero"/><g fill="#61cbc1" fill-opacity="1"><g transform="translate(118.75338, 148.402322)"><g><path d="M 7.296875 -31.921875 L 7.5625 -31.578125 C 7.582031 -31.304688 7.492188 -31.070312 7.296875 -30.875 C 6.847656 -30.363281 6.6875 -29.726562 6.8125 -28.96875 C 6.84375 -28.84375 6.882812 -28.75 6.9375 -28.6875 C 7.09375 -28.457031 7.203125 -28.203125 7.265625 -27.921875 C 7.316406 -27.703125 7.40625 -27.472656 7.53125 -27.234375 C 7.65625 -27.066406 7.769531 -26.890625 7.875 -26.703125 C 7.988281 -26.515625 8.113281 -26.335938 8.25 -26.171875 C 8.644531 -25.773438 8.992188 -25.335938 9.296875 -24.859375 C 9.609375 -24.378906 9.929688 -23.925781 10.265625 -23.5 C 10.410156 -23.21875 10.570312 -22.945312 10.75 -22.6875 C 10.9375 -22.4375 11.125 -22.1875 11.3125 -21.9375 C 11.382812 -21.832031 11.460938 -21.726562 11.546875 -21.625 C 11.640625 -21.53125 11.734375 -21.4375 11.828125 -21.34375 C 11.878906 -21.289062 11.925781 -21.21875 11.96875 -21.125 C 12.007812 -21.039062 12.0625 -20.957031 12.125 -20.875 C 12.1875 -20.75 12.265625 -20.617188 12.359375 -20.484375 C 12.460938 -20.347656 12.566406 -20.207031 12.671875 -20.0625 C 12.710938 -19.988281 12.765625 -19.9375 12.828125 -19.90625 C 12.890625 -19.875 12.945312 -19.820312 13 -19.75 C 13.101562 -19.675781 13.175781 -19.578125 13.21875 -19.453125 L 13.328125 -19.296875 C 13.503906 -19.097656 13.671875 -18.890625 13.828125 -18.671875 C 13.984375 -18.460938 14.117188 -18.238281 14.234375 -18 C 14.390625 -17.707031 14.5625 -17.425781 14.75 -17.15625 C 14.945312 -16.894531 15.144531 -16.628906 15.34375 -16.359375 L 17.4375 -13.453125 C 17.582031 -13.242188 17.628906 -13.035156 17.578125 -12.828125 C 17.523438 -12.617188 17.382812 -12.457031 17.15625 -12.34375 C 16.945312 -12.25 16.75 -12.132812 16.5625 -12 C 16.375 -11.863281 16.191406 -11.71875 16.015625 -11.5625 C 15.753906 -11.34375 15.472656 -11.140625 15.171875 -10.953125 C 14.960938 -10.804688 14.769531 -10.648438 14.59375 -10.484375 C 14.425781 -10.316406 14.253906 -10.160156 14.078125 -10.015625 L 13.484375 -9.578125 C 13.398438 -9.523438 13.332031 -9.503906 13.28125 -9.515625 C 13.195312 -9.535156 13.109375 -9.546875 13.015625 -9.546875 C 12.921875 -9.554688 12.820312 -9.578125 12.71875 -9.609375 C 12.476562 -9.722656 12.234375 -9.832031 11.984375 -9.9375 C 11.734375 -10.039062 11.476562 -10.140625 11.21875 -10.234375 C 11.019531 -10.296875 10.820312 -10.359375 10.625 -10.421875 C 10.4375 -10.492188 10.253906 -10.566406 10.078125 -10.640625 C 9.960938 -10.691406 9.890625 -10.738281 9.859375 -10.78125 C 9.773438 -10.84375 9.6875 -10.894531 9.59375 -10.9375 C 9.507812 -10.976562 9.425781 -11.019531 9.34375 -11.0625 L 5.578125 -12.65625 L 2.84375 -13.796875 C 2.71875 -13.859375 2.585938 -13.90625 2.453125 -13.9375 C 2.335938 -13.945312 2.234375 -13.96875 2.140625 -14 C 2.054688 -14.039062 1.96875 -14.085938 1.875 -14.140625 C 1.5 -14.367188 1.140625 -14.535156 0.796875 -14.640625 C 0.660156 -14.671875 0.523438 -14.722656 0.390625 -14.796875 C 0.265625 -14.867188 0.140625 -14.9375 0.015625 -15 C -0.160156 -15.082031 -0.332031 -15.160156 -0.5 -15.234375 C -0.664062 -15.316406 -0.835938 -15.382812 -1.015625 -15.4375 C -1.046875 -15.457031 -1.085938 -15.472656 -1.140625 -15.484375 C -1.191406 -15.503906 -1.242188 -15.523438 -1.296875 -15.546875 C -1.453125 -15.628906 -1.617188 -15.6875 -1.796875 -15.71875 C -1.972656 -15.75 -2.144531 -15.789062 -2.3125 -15.84375 C -2.4375 -15.882812 -2.535156 -15.863281 -2.609375 -15.78125 C -2.648438 -15.695312 -2.644531 -15.585938 -2.59375 -15.453125 L -0.65625 -12.765625 C -0.476562 -12.628906 -0.335938 -12.484375 -0.234375 -12.328125 C -0.140625 -12.171875 -0.0390625 -12 0.0625 -11.8125 C 0.0703125 -11.769531 0.0976562 -11.71875 0.140625 -11.65625 L 0.90625 -10.59375 C 0.957031 -10.53125 1.007812 -10.476562 1.0625 -10.4375 C 1.332031 -10.300781 1.515625 -10.0625 1.609375 -9.71875 C 1.660156 -9.582031 1.703125 -9.492188 1.734375 -9.453125 L 2.59375 -8.25 C 2.632812 -8.195312 2.675781 -8.148438 2.71875 -8.109375 C 2.757812 -8.078125 2.804688 -8.039062 2.859375 -8 C 2.921875 -7.9375 2.988281 -7.863281 3.0625 -7.78125 C 3.132812 -7.695312 3.195312 -7.601562 3.25 -7.5 C 3.375 -7.332031 3.503906 -7.1875 3.640625 -7.0625 C 3.785156 -6.9375 3.9375 -6.816406 4.09375 -6.703125 C 4.113281 -6.691406 4.15625 -6.675781 4.21875 -6.65625 C 4.382812 -6.613281 4.523438 -6.554688 4.640625 -6.484375 C 4.753906 -6.410156 4.878906 -6.347656 5.015625 -6.296875 C 5.429688 -6.109375 5.832031 -6.101562 6.21875 -6.28125 C 6.269531 -6.3125 6.3125 -6.328125 6.34375 -6.328125 C 6.550781 -6.484375 6.78125 -6.492188 7.03125 -6.359375 C 7.300781 -6.265625 7.441406 -6.082031 7.453125 -5.8125 C 7.503906 -5.5625 7.421875 -5.359375 7.203125 -5.203125 L 1.8125 -1.3125 C 1.507812 -1.09375 1.21875 -1.125 0.9375 -1.40625 C 0.71875 -1.644531 0.695312 -1.90625 0.875 -2.1875 L 1.0625 -2.40625 C 1.28125 -2.632812 1.4375 -2.9375 1.53125 -3.3125 C 1.570312 -3.539062 1.570312 -3.753906 1.53125 -3.953125 C 1.488281 -4.148438 1.429688 -4.34375 1.359375 -4.53125 C 1.285156 -4.707031 1.21875 -4.859375 1.15625 -4.984375 C 1.09375 -5.117188 1.050781 -5.273438 1.03125 -5.453125 C 1.019531 -5.578125 0.976562 -5.6875 0.90625 -5.78125 C 0.84375 -5.875 0.796875 -5.96875 0.765625 -6.0625 C 0.660156 -6.195312 0.566406 -6.335938 0.484375 -6.484375 C 0.398438 -6.640625 0.300781 -6.78125 0.1875 -6.90625 C 0.0703125 -7.03125 -0.03125 -7.164062 -0.125 -7.3125 C -0.226562 -7.457031 -0.34375 -7.585938 -0.46875 -7.703125 L -0.65625 -7.953125 C -0.757812 -8.097656 -0.847656 -8.222656 -0.921875 -8.328125 C -1.003906 -8.441406 -1.101562 -8.546875 -1.21875 -8.640625 C -1.320312 -8.742188 -1.410156 -8.851562 -1.484375 -8.96875 C -1.554688 -9.082031 -1.609375 -9.21875 -1.640625 -9.375 C -1.648438 -9.425781 -1.691406 -9.5 -1.765625 -9.59375 L -2.46875 -10.578125 C -2.519531 -10.640625 -2.566406 -10.695312 -2.609375 -10.75 C -2.660156 -10.8125 -2.722656 -10.867188 -2.796875 -10.921875 C -3.035156 -11.117188 -3.203125 -11.351562 -3.296875 -11.625 C -3.378906 -11.789062 -3.46875 -11.945312 -3.5625 -12.09375 C -3.664062 -12.238281 -3.78125 -12.378906 -3.90625 -12.515625 C -4.132812 -12.804688 -4.335938 -13.09375 -4.515625 -13.375 C -4.628906 -13.550781 -4.789062 -13.726562 -5 -13.90625 C -5.125 -14.050781 -5.25 -14.203125 -5.375 -14.359375 C -5.5 -14.515625 -5.613281 -14.679688 -5.71875 -14.859375 C -5.738281 -14.910156 -5.773438 -14.976562 -5.828125 -15.0625 C -5.890625 -15.144531 -5.945312 -15.234375 -6 -15.328125 C -6.050781 -15.421875 -6.09375 -15.507812 -6.125 -15.59375 C -6.144531 -15.644531 -6.1875 -15.71875 -6.25 -15.8125 C -6.4375 -16.070312 -6.617188 -16.332031 -6.796875 -16.59375 C -6.972656 -16.863281 -7.164062 -17.117188 -7.375 -17.359375 C -7.539062 -17.585938 -7.726562 -17.789062 -7.9375 -17.96875 C -8.125 -18.164062 -8.335938 -18.285156 -8.578125 -18.328125 C -8.679688 -18.347656 -8.800781 -18.40625 -8.9375 -18.5 C -9.050781 -18.582031 -9.171875 -18.65625 -9.296875 -18.71875 C -9.429688 -18.789062 -9.566406 -18.84375 -9.703125 -18.875 C -9.910156 -18.945312 -10.046875 -19.078125 -10.109375 -19.265625 C -10.179688 -19.453125 -10.203125 -19.644531 -10.171875 -19.84375 C -10.128906 -20 -10.023438 -20.117188 -9.859375 -20.203125 C -9.679688 -20.242188 -9.515625 -20.316406 -9.359375 -20.421875 C -9.203125 -20.535156 -9.054688 -20.644531 -8.921875 -20.75 C -8.847656 -20.800781 -8.800781 -20.847656 -8.78125 -20.890625 C -8.738281 -20.941406 -8.6875 -20.988281 -8.625 -21.03125 C -8.570312 -21.070312 -8.519531 -21.113281 -8.46875 -21.15625 C -8.332031 -21.25 -8.21875 -21.34375 -8.125 -21.4375 C -8.03125 -21.53125 -7.914062 -21.613281 -7.78125 -21.6875 C -7.738281 -21.726562 -7.6875 -21.769531 -7.625 -21.8125 C -7.5625 -21.851562 -7.492188 -21.882812 -7.421875 -21.90625 C -7.335938 -21.945312 -7.257812 -21.984375 -7.1875 -22.015625 C -7.113281 -22.054688 -7.046875 -22.101562 -6.984375 -22.15625 L -6.171875 -22.734375 C -5.960938 -22.878906 -5.757812 -23.03125 -5.5625 -23.1875 C -5.363281 -23.351562 -5.179688 -23.53125 -5.015625 -23.71875 C -4.867188 -23.851562 -4.710938 -23.90625 -4.546875 -23.875 C -4.441406 -23.84375 -4.34375 -23.820312 -4.25 -23.8125 C -4.15625 -23.800781 -4.054688 -23.769531 -3.953125 -23.71875 C -3.898438 -23.664062 -3.816406 -23.644531 -3.703125 -23.65625 C -3.316406 -23.65625 -3.015625 -23.523438 -2.796875 -23.265625 C -2.753906 -23.222656 -2.695312 -23.1875 -2.625 -23.15625 C -2.550781 -23.132812 -2.488281 -23.101562 -2.4375 -23.0625 L -1.09375 -22.484375 L -0.96875 -22.46875 C -0.820312 -22.445312 -0.679688 -22.410156 -0.546875 -22.359375 C -0.410156 -22.304688 -0.28125 -22.234375 -0.15625 -22.140625 C -0.0703125 -22.097656 0.00390625 -22.0625 0.078125 -22.03125 C 0.148438 -22 0.226562 -21.957031 0.3125 -21.90625 L 3.109375 -20.71875 C 3.179688 -20.6875 3.253906 -20.65625 3.328125 -20.625 C 3.398438 -20.59375 3.476562 -20.582031 3.5625 -20.59375 C 3.65625 -20.601562 3.769531 -20.582031 3.90625 -20.53125 C 4.226562 -20.40625 4.546875 -20.265625 4.859375 -20.109375 C 5.171875 -19.960938 5.484375 -19.800781 5.796875 -19.625 C 6.085938 -19.46875 6.394531 -19.320312 6.71875 -19.1875 C 7.050781 -19.0625 7.375 -18.929688 7.6875 -18.796875 C 7.726562 -18.773438 7.804688 -18.753906 7.921875 -18.734375 C 8.242188 -18.671875 8.523438 -18.550781 8.765625 -18.375 C 8.785156 -18.332031 8.835938 -18.289062 8.921875 -18.25 C 9.003906 -18.207031 9.085938 -18.171875 9.171875 -18.140625 C 9.265625 -18.109375 9.363281 -18.070312 9.46875 -18.03125 C 9.539062 -17.976562 9.640625 -17.953125 9.765625 -17.953125 C 9.847656 -17.972656 9.96875 -17.945312 10.125 -17.875 L 10.375 -17.828125 C 10.632812 -17.859375 10.707031 -17.984375 10.59375 -18.203125 C 10.570312 -18.265625 10.535156 -18.328125 10.484375 -18.390625 C 10.441406 -18.453125 10.394531 -18.519531 10.34375 -18.59375 L 9.65625 -19.546875 C 9.601562 -19.617188 9.550781 -19.6875 9.5 -19.75 C 9.445312 -19.8125 9.394531 -19.875 9.34375 -19.9375 C 9.113281 -20.25 8.894531 -20.566406 8.6875 -20.890625 C 8.488281 -21.210938 8.269531 -21.519531 8.03125 -21.8125 C 7.894531 -21.96875 7.765625 -22.128906 7.640625 -22.296875 C 7.515625 -22.460938 7.398438 -22.640625 7.296875 -22.828125 L 7.171875 -23 C 7.066406 -23.132812 6.972656 -23.257812 6.890625 -23.375 C 6.804688 -23.488281 6.707031 -23.582031 6.59375 -23.65625 C 6.488281 -23.71875 6.410156 -23.796875 6.359375 -23.890625 C 6.304688 -23.984375 6.265625 -24.070312 6.234375 -24.15625 C 6.191406 -24.300781 6.125 -24.429688 6.03125 -24.546875 C 5.945312 -24.671875 5.863281 -24.796875 5.78125 -24.921875 C 5.71875 -24.984375 5.628906 -25.085938 5.515625 -25.234375 C 5.285156 -25.515625 5.046875 -25.78125 4.796875 -26.03125 C 4.554688 -26.28125 4.285156 -26.503906 3.984375 -26.703125 C 3.796875 -26.835938 3.578125 -26.941406 3.328125 -27.015625 C 3.085938 -27.097656 2.835938 -27.128906 2.578125 -27.109375 C 2.421875 -27.109375 2.28125 -27.082031 2.15625 -27.03125 C 2.03125 -26.988281 1.914062 -26.941406 1.8125 -26.890625 C 1.5625 -26.722656 1.296875 -26.722656 1.015625 -26.890625 C 0.828125 -27.003906 0.753906 -27.175781 0.796875 -27.40625 C 0.835938 -27.675781 0.960938 -27.882812 1.171875 -28.03125 L 1.671875 -28.40625 C 1.847656 -28.507812 2.003906 -28.628906 2.140625 -28.765625 C 2.285156 -28.898438 2.445312 -29.03125 2.625 -29.15625 C 2.664062 -29.1875 2.710938 -29.21875 2.765625 -29.25 C 2.816406 -29.289062 2.875 -29.328125 2.9375 -29.359375 C 3 -29.367188 3.082031 -29.410156 3.1875 -29.484375 L 6.421875 -31.828125 C 6.722656 -32.046875 7.015625 -32.078125 7.296875 -31.921875 Z M 7.296875 -31.921875 "/></g></g></g><g fill="#61cbc1" fill-opacity="1"><g transform="translate(141.294106, 133.008532)"><g><path d="M 3.578125 -17.6875 L 4.359375 -15.90625 C 4.390625 -15.78125 4.425781 -15.660156 4.46875 -15.546875 C 4.507812 -15.441406 4.550781 -15.335938 4.59375 -15.234375 L 5.0625 -14.21875 C 5.082031 -14.101562 5.125 -13.992188 5.1875 -13.890625 C 5.257812 -13.785156 5.316406 -13.679688 5.359375 -13.578125 C 5.441406 -13.390625 5.519531 -13.191406 5.59375 -12.984375 C 5.664062 -12.773438 5.753906 -12.582031 5.859375 -12.40625 C 5.910156 -12.28125 5.957031 -12.191406 6 -12.140625 C 6.113281 -12.046875 6.195312 -11.941406 6.25 -11.828125 C 6.289062 -11.679688 6.351562 -11.523438 6.4375 -11.359375 C 6.519531 -11.203125 6.582031 -11.046875 6.625 -10.890625 C 6.695312 -10.691406 6.769531 -10.5 6.84375 -10.3125 C 6.925781 -10.125 7 -9.925781 7.0625 -9.71875 C 7.070312 -9.625 7.101562 -9.53125 7.15625 -9.4375 C 7.207031 -9.351562 7.253906 -9.265625 7.296875 -9.171875 C 7.453125 -8.816406 7.625 -8.472656 7.8125 -8.140625 C 8 -7.816406 8.203125 -7.515625 8.421875 -7.234375 C 8.585938 -7.023438 8.769531 -6.835938 8.96875 -6.671875 C 9.175781 -6.515625 9.398438 -6.398438 9.640625 -6.328125 C 10.023438 -6.171875 10.398438 -6.144531 10.765625 -6.25 C 10.984375 -6.269531 11.175781 -6.257812 11.34375 -6.21875 C 11.675781 -6.082031 11.785156 -5.832031 11.671875 -5.46875 C 11.554688 -5.28125 11.394531 -5.117188 11.1875 -4.984375 C 10.914062 -4.828125 10.625 -4.6875 10.3125 -4.5625 C 10.007812 -4.445312 9.722656 -4.316406 9.453125 -4.171875 C 9.316406 -4.109375 9.179688 -4.035156 9.046875 -3.953125 C 8.910156 -3.878906 8.769531 -3.796875 8.625 -3.703125 C 8.4375 -3.617188 8.242188 -3.523438 8.046875 -3.421875 C 7.859375 -3.328125 7.648438 -3.285156 7.421875 -3.296875 L 7.359375 -3.28125 C 7.191406 -3.195312 7.023438 -3.125 6.859375 -3.0625 C 6.691406 -3.007812 6.535156 -2.9375 6.390625 -2.84375 C 6.378906 -2.832031 6.367188 -2.816406 6.359375 -2.796875 C 6.359375 -2.785156 6.347656 -2.78125 6.328125 -2.78125 C 6.117188 -2.707031 5.925781 -2.617188 5.75 -2.515625 C 5.582031 -2.421875 5.40625 -2.332031 5.21875 -2.25 C 5.125 -2.195312 5.019531 -2.144531 4.90625 -2.09375 C 4.800781 -2.050781 4.703125 -2.003906 4.609375 -1.953125 C 4.578125 -1.941406 4.53125 -1.921875 4.46875 -1.890625 C 4.40625 -1.867188 4.351562 -1.851562 4.3125 -1.84375 C 4.21875 -1.851562 4.132812 -1.84375 4.0625 -1.8125 C 4 -1.78125 3.921875 -1.742188 3.828125 -1.703125 C 3.523438 -1.566406 3.21875 -1.4375 2.90625 -1.3125 C 2.601562 -1.1875 2.304688 -1.046875 2.015625 -0.890625 C 1.859375 -0.828125 1.675781 -0.835938 1.46875 -0.921875 C 1.257812 -1.015625 1.144531 -1.179688 1.125 -1.421875 C 1.09375 -1.660156 1.175781 -1.863281 1.375 -2.03125 C 1.726562 -2.25 1.988281 -2.519531 2.15625 -2.84375 C 2.300781 -3.21875 2.367188 -3.628906 2.359375 -4.078125 C 2.328125 -4.597656 2.210938 -5.078125 2.015625 -5.515625 C 1.960938 -5.640625 1.910156 -5.765625 1.859375 -5.890625 C 1.816406 -6.023438 1.773438 -6.171875 1.734375 -6.328125 C 1.679688 -6.554688 1.59375 -6.753906 1.46875 -6.921875 C 1.394531 -7.078125 1.328125 -7.222656 1.265625 -7.359375 C 1.203125 -7.503906 1.148438 -7.648438 1.109375 -7.796875 L 0.46875 -9.234375 C 0.425781 -9.335938 0.382812 -9.4375 0.34375 -9.53125 C 0.300781 -9.625 0.242188 -9.695312 0.171875 -9.75 C 0.046875 -9.957031 -0.0351562 -10.175781 -0.078125 -10.40625 C -0.0859375 -10.476562 -0.101562 -10.539062 -0.125 -10.59375 C -0.15625 -10.65625 -0.179688 -10.710938 -0.203125 -10.765625 L -1.515625 -13.703125 C -1.535156 -13.765625 -1.5625 -13.828125 -1.59375 -13.890625 C -1.625 -13.960938 -1.664062 -14.03125 -1.71875 -14.09375 C -1.84375 -14.3125 -1.945312 -14.539062 -2.03125 -14.78125 C -2.03125 -14.84375 -2.039062 -14.898438 -2.0625 -14.953125 C -2.09375 -15.015625 -2.117188 -15.078125 -2.140625 -15.140625 L -2.703125 -16.375 C -2.753906 -16.488281 -2.796875 -16.5625 -2.828125 -16.59375 C -3.023438 -16.78125 -3.144531 -16.984375 -3.1875 -17.203125 C -3.1875 -17.335938 -3.207031 -17.46875 -3.25 -17.59375 C -3.300781 -17.726562 -3.363281 -17.847656 -3.4375 -17.953125 C -3.539062 -18.128906 -3.648438 -18.296875 -3.765625 -18.453125 C -3.878906 -18.609375 -4.003906 -18.765625 -4.140625 -18.921875 C -4.242188 -19.054688 -4.363281 -19.164062 -4.5 -19.25 L -4.921875 -19.59375 C -5.273438 -19.820312 -5.660156 -19.910156 -6.078125 -19.859375 C -6.148438 -19.867188 -6.207031 -19.851562 -6.25 -19.8125 C -6.300781 -19.769531 -6.378906 -19.75 -6.484375 -19.75 C -6.859375 -19.632812 -7.132812 -19.78125 -7.3125 -20.1875 C -7.375 -20.363281 -7.363281 -20.570312 -7.28125 -20.8125 C -7.207031 -21.050781 -7.023438 -21.195312 -6.734375 -21.25 C -6.617188 -21.25 -6.5 -21.269531 -6.375 -21.3125 C -6.25 -21.351562 -6.140625 -21.394531 -6.046875 -21.4375 L 2.234375 -25.125 C 2.296875 -25.144531 2.351562 -25.164062 2.40625 -25.1875 C 2.46875 -25.21875 2.53125 -25.226562 2.59375 -25.21875 C 2.90625 -25.21875 3.109375 -25.054688 3.203125 -24.734375 C 3.285156 -24.472656 3.207031 -24.253906 2.96875 -24.078125 C 2.78125 -23.941406 2.613281 -23.785156 2.46875 -23.609375 C 2.332031 -23.429688 2.234375 -23.222656 2.171875 -22.984375 C 2.097656 -22.773438 2.046875 -22.554688 2.015625 -22.328125 C 1.992188 -22.097656 2.023438 -21.875 2.109375 -21.65625 C 2.171875 -21.53125 2.207031 -21.394531 2.21875 -21.25 C 2.238281 -21.101562 2.265625 -20.953125 2.296875 -20.796875 C 2.273438 -20.628906 2.304688 -20.453125 2.390625 -20.265625 C 2.460938 -20.066406 2.546875 -19.859375 2.640625 -19.640625 C 2.734375 -19.429688 2.828125 -19.222656 2.921875 -19.015625 C 2.929688 -18.992188 2.929688 -18.96875 2.921875 -18.9375 C 2.921875 -18.914062 2.9375 -18.898438 2.96875 -18.890625 C 3.101562 -18.734375 3.210938 -18.546875 3.296875 -18.328125 C 3.378906 -18.117188 3.472656 -17.90625 3.578125 -17.6875 Z M 3.578125 -17.6875 "/></g></g></g><g fill="#61cbc1" fill-opacity="1"><g transform="translate(154.82287, 125.555862)"><g><path d="M 34.859375 -5.828125 L 32.46875 -5.421875 C 32.300781 -5.390625 32.125 -5.359375 31.9375 -5.328125 C 31.75 -5.296875 31.578125 -5.238281 31.421875 -5.15625 C 31.304688 -5.09375 31.1875 -5.0625 31.0625 -5.0625 C 30.9375 -5.0625 30.800781 -5.054688 30.65625 -5.046875 C 30.5 -5.085938 30.347656 -5.085938 30.203125 -5.046875 L 28.796875 -4.8125 C 28.703125 -4.789062 28.625 -4.765625 28.5625 -4.734375 C 28.53125 -4.710938 28.460938 -4.691406 28.359375 -4.671875 L 25.421875 -4.1875 L 24.359375 -4.09375 C 24.171875 -4.0625 24.007812 -4.117188 23.875 -4.265625 C 23.738281 -4.421875 23.675781 -4.59375 23.6875 -4.78125 C 23.738281 -5.132812 23.898438 -5.347656 24.171875 -5.421875 C 24.410156 -5.484375 24.632812 -5.613281 24.84375 -5.8125 C 24.90625 -5.925781 24.953125 -6.023438 24.984375 -6.109375 C 25.015625 -6.203125 25.019531 -6.3125 25 -6.4375 C 24.976562 -6.582031 24.96875 -6.71875 24.96875 -6.84375 C 24.96875 -6.976562 24.96875 -7.117188 24.96875 -7.265625 C 24.945312 -7.367188 24.921875 -7.476562 24.890625 -7.59375 C 24.859375 -7.707031 24.835938 -7.816406 24.828125 -7.921875 C 24.773438 -8.109375 24.71875 -8.296875 24.65625 -8.484375 C 24.601562 -8.671875 24.550781 -8.851562 24.5 -9.03125 C 24.445312 -9.164062 24.394531 -9.289062 24.34375 -9.40625 C 24.300781 -9.519531 24.25 -9.632812 24.1875 -9.75 L 22.109375 -14.09375 C 22.097656 -14.15625 22.0625 -14.226562 22 -14.3125 C 21.894531 -14.4375 21.8125 -14.570312 21.75 -14.71875 C 21.695312 -14.875 21.648438 -15.023438 21.609375 -15.171875 L 21.453125 -15.53125 C 21.316406 -15.820312 21.171875 -16.117188 21.015625 -16.421875 C 20.859375 -16.722656 20.710938 -17.035156 20.578125 -17.359375 C 20.578125 -17.398438 20.5625 -17.441406 20.53125 -17.484375 C 20.5 -17.535156 20.46875 -17.582031 20.4375 -17.625 C 20.382812 -17.71875 20.328125 -17.804688 20.265625 -17.890625 C 20.210938 -17.972656 20.15625 -18.0625 20.09375 -18.15625 L 19.984375 -18.25 C 19.960938 -18.238281 19.945312 -18.222656 19.9375 -18.203125 C 19.9375 -18.179688 19.921875 -18.15625 19.890625 -18.125 C 19.878906 -18.039062 19.847656 -17.953125 19.796875 -17.859375 C 19.753906 -17.773438 19.722656 -17.675781 19.703125 -17.5625 C 19.660156 -17.363281 19.632812 -17.144531 19.625 -16.90625 C 19.5625 -16.5 19.515625 -16.082031 19.484375 -15.65625 C 19.460938 -15.238281 19.4375 -14.816406 19.40625 -14.390625 C 19.394531 -14.210938 19.359375 -14.054688 19.296875 -13.921875 C 19.242188 -13.828125 19.222656 -13.722656 19.234375 -13.609375 C 19.242188 -13.492188 19.238281 -13.378906 19.21875 -13.265625 C 19.15625 -12.660156 19.082031 -12.054688 19 -11.453125 C 18.925781 -10.847656 18.859375 -10.222656 18.796875 -9.578125 C 18.742188 -9.171875 18.8125 -8.765625 19 -8.359375 C 19.15625 -8.078125 19.304688 -7.796875 19.453125 -7.515625 C 19.609375 -7.234375 19.757812 -6.957031 19.90625 -6.6875 C 19.9375 -6.625 19.96875 -6.5625 20 -6.5 C 20.03125 -6.445312 20.070312 -6.382812 20.125 -6.3125 C 20.1875 -6.25 20.238281 -6.175781 20.28125 -6.09375 C 20.320312 -6.019531 20.363281 -5.929688 20.40625 -5.828125 C 20.476562 -5.628906 20.566406 -5.425781 20.671875 -5.21875 C 20.773438 -5.019531 20.890625 -4.8125 21.015625 -4.59375 L 21.15625 -4.28125 C 21.207031 -4.113281 21.171875 -3.929688 21.046875 -3.734375 C 20.921875 -3.546875 20.765625 -3.445312 20.578125 -3.4375 C 20.421875 -3.425781 20.273438 -3.40625 20.140625 -3.375 C 20.003906 -3.34375 19.859375 -3.316406 19.703125 -3.296875 C 19.617188 -3.273438 19.523438 -3.253906 19.421875 -3.234375 C 19.316406 -3.222656 19.21875 -3.1875 19.125 -3.125 C 19.019531 -3.070312 18.90625 -3.046875 18.78125 -3.046875 C 18.664062 -3.046875 18.535156 -3.046875 18.390625 -3.046875 C 18.304688 -3.046875 18.191406 -3.035156 18.046875 -3.015625 C 17.617188 -2.941406 17.1875 -2.875 16.75 -2.8125 C 16.3125 -2.75 15.875 -2.671875 15.4375 -2.578125 C 15.238281 -2.546875 15.015625 -2.582031 14.765625 -2.6875 C 14.710938 -2.71875 14.660156 -2.773438 14.609375 -2.859375 C 14.578125 -2.910156 14.550781 -2.957031 14.53125 -3 C 14.507812 -3.050781 14.492188 -3.097656 14.484375 -3.140625 C 14.378906 -3.453125 14.253906 -3.75 14.109375 -4.03125 C 13.972656 -4.3125 13.835938 -4.59375 13.703125 -4.875 C 13.671875 -4.976562 13.613281 -5.050781 13.53125 -5.09375 C 13.425781 -5.1875 13.351562 -5.28125 13.3125 -5.375 C 13.269531 -5.476562 13.242188 -5.582031 13.234375 -5.6875 C 13.242188 -5.757812 13.234375 -5.828125 13.203125 -5.890625 C 13.179688 -5.960938 13.15625 -6.03125 13.125 -6.09375 L 12.53125 -7.328125 C 12.476562 -7.441406 12.425781 -7.53125 12.375 -7.59375 C 12.332031 -7.6875 12.285156 -7.785156 12.234375 -7.890625 C 12.191406 -7.992188 12.148438 -8.09375 12.109375 -8.1875 C 12.035156 -8.363281 11.957031 -8.546875 11.875 -8.734375 C 11.800781 -8.929688 11.695312 -9.101562 11.5625 -9.25 C 11.414062 -9.40625 11.296875 -9.628906 11.203125 -9.921875 C 11.160156 -10.078125 11.097656 -10.238281 11.015625 -10.40625 C 10.929688 -10.570312 10.835938 -10.722656 10.734375 -10.859375 C 10.578125 -11.117188 10.484375 -11.351562 10.453125 -11.5625 C 10.460938 -11.59375 10.457031 -11.628906 10.4375 -11.671875 C 10.425781 -11.710938 10.414062 -11.753906 10.40625 -11.796875 L 8.359375 -16.078125 C 8.335938 -16.078125 8.328125 -16.097656 8.328125 -16.140625 C 8.253906 -16.285156 8.164062 -16.347656 8.0625 -16.328125 C 7.9375 -16.304688 7.878906 -16.21875 7.890625 -16.0625 C 7.878906 -16 7.867188 -15.9375 7.859375 -15.875 C 7.847656 -15.8125 7.835938 -15.75 7.828125 -15.6875 C 7.734375 -14.925781 7.644531 -14.160156 7.5625 -13.390625 C 7.488281 -12.628906 7.410156 -11.851562 7.328125 -11.0625 C 7.304688 -10.894531 7.285156 -10.710938 7.265625 -10.515625 C 7.253906 -10.316406 7.253906 -10.117188 7.265625 -9.921875 C 7.296875 -9.617188 7.253906 -9.328125 7.140625 -9.046875 C 7.085938 -8.972656 7.054688 -8.84375 7.046875 -8.65625 C 6.984375 -8.164062 6.929688 -7.679688 6.890625 -7.203125 C 6.847656 -6.734375 6.804688 -6.25 6.765625 -5.75 C 6.765625 -5.601562 6.773438 -5.457031 6.796875 -5.3125 C 6.828125 -5.175781 6.84375 -5.035156 6.84375 -4.890625 L 6.828125 -4.375 C 6.785156 -4.175781 6.789062 -4 6.84375 -3.84375 C 6.894531 -3.6875 6.96875 -3.53125 7.0625 -3.375 L 7.265625 -3.09375 C 7.398438 -2.9375 7.585938 -2.851562 7.828125 -2.84375 L 8.1875 -2.8125 C 8.414062 -2.851562 8.628906 -2.722656 8.828125 -2.421875 C 8.972656 -2.210938 8.984375 -1.984375 8.859375 -1.734375 C 8.734375 -1.484375 8.539062 -1.34375 8.28125 -1.3125 C 8.195312 -1.300781 8.109375 -1.289062 8.015625 -1.28125 C 7.929688 -1.28125 7.847656 -1.273438 7.765625 -1.265625 C 7.597656 -1.234375 7.425781 -1.203125 7.25 -1.171875 C 7.082031 -1.148438 6.914062 -1.101562 6.75 -1.03125 C 6.445312 -0.914062 6.140625 -0.863281 5.828125 -0.875 L 5.546875 -0.828125 C 5.335938 -0.773438 5.101562 -0.757812 4.84375 -0.78125 C 4.78125 -0.789062 4.6875 -0.785156 4.5625 -0.765625 C 4.050781 -0.679688 3.539062 -0.597656 3.03125 -0.515625 C 2.519531 -0.441406 2.007812 -0.351562 1.5 -0.25 C 1.226562 -0.207031 0.972656 -0.296875 0.734375 -0.515625 C 0.585938 -0.628906 0.554688 -0.8125 0.640625 -1.0625 C 0.773438 -1.320312 0.976562 -1.488281 1.25 -1.5625 C 1.40625 -1.582031 1.566406 -1.679688 1.734375 -1.859375 C 1.835938 -1.992188 1.945312 -2.082031 2.0625 -2.125 C 2.226562 -2.195312 2.359375 -2.296875 2.453125 -2.421875 C 2.546875 -2.546875 2.640625 -2.664062 2.734375 -2.78125 C 2.765625 -2.851562 2.800781 -2.925781 2.84375 -3 C 2.882812 -3.070312 2.910156 -3.148438 2.921875 -3.234375 C 2.984375 -3.460938 3.054688 -3.675781 3.140625 -3.875 C 3.222656 -4.082031 3.285156 -4.296875 3.328125 -4.515625 C 3.316406 -4.535156 3.316406 -4.546875 3.328125 -4.546875 C 3.335938 -4.554688 3.34375 -4.570312 3.34375 -4.59375 C 3.5 -4.84375 3.597656 -5.101562 3.640625 -5.375 C 3.691406 -5.644531 3.738281 -5.914062 3.78125 -6.1875 C 3.8125 -6.40625 3.84375 -6.609375 3.875 -6.796875 C 3.914062 -6.992188 3.941406 -7.203125 3.953125 -7.421875 L 3.90625 -7.65625 C 3.875 -7.96875 3.929688 -8.25 4.078125 -8.5 C 4.191406 -8.800781 4.226562 -9.085938 4.1875 -9.359375 C 4.15625 -9.535156 4.144531 -9.710938 4.15625 -9.890625 C 4.175781 -10.066406 4.234375 -10.238281 4.328125 -10.40625 C 4.378906 -10.476562 4.410156 -10.550781 4.421875 -10.625 C 4.441406 -10.863281 4.46875 -11.113281 4.5 -11.375 C 4.53125 -11.632812 4.566406 -11.878906 4.609375 -12.109375 C 4.609375 -12.128906 4.609375 -12.15625 4.609375 -12.1875 C 4.617188 -12.21875 4.617188 -12.242188 4.609375 -12.265625 C 4.554688 -12.492188 4.59375 -12.742188 4.71875 -13.015625 L 4.84375 -13.484375 L 5.15625 -15.796875 C 5.175781 -15.921875 5.191406 -16.039062 5.203125 -16.15625 C 5.210938 -16.28125 5.234375 -16.382812 5.265625 -16.46875 C 5.273438 -16.550781 5.265625 -16.664062 5.234375 -16.8125 C 5.203125 -16.863281 5.195312 -16.976562 5.21875 -17.15625 C 5.257812 -17.394531 5.296875 -17.640625 5.328125 -17.890625 C 5.359375 -18.148438 5.398438 -18.390625 5.453125 -18.609375 C 5.503906 -18.867188 5.566406 -19.125 5.640625 -19.375 C 5.722656 -19.632812 5.765625 -19.894531 5.765625 -20.15625 C 5.796875 -20.351562 5.796875 -20.546875 5.765625 -20.734375 C 5.753906 -20.960938 5.675781 -21.191406 5.53125 -21.421875 C 5.4375 -21.597656 5.375 -21.773438 5.34375 -21.953125 C 5.332031 -22.015625 5.320312 -22.078125 5.3125 -22.140625 C 5.300781 -22.203125 5.265625 -22.257812 5.203125 -22.3125 C 5.140625 -22.457031 5.128906 -22.609375 5.171875 -22.765625 C 5.210938 -22.921875 5.273438 -23.082031 5.359375 -23.25 C 5.398438 -23.34375 5.492188 -23.398438 5.640625 -23.421875 C 5.722656 -23.441406 5.796875 -23.457031 5.859375 -23.46875 C 5.929688 -23.476562 6.015625 -23.476562 6.109375 -23.46875 C 6.347656 -23.445312 6.59375 -23.457031 6.84375 -23.5 L 8.921875 -23.84375 C 8.992188 -23.851562 9.0625 -23.867188 9.125 -23.890625 C 9.195312 -23.921875 9.265625 -23.941406 9.328125 -23.953125 C 9.535156 -23.960938 9.742188 -23.984375 9.953125 -24.015625 C 10.160156 -24.046875 10.363281 -24.082031 10.5625 -24.125 C 10.707031 -24.144531 10.851562 -24.113281 11 -24.03125 C 11.144531 -23.945312 11.238281 -23.832031 11.28125 -23.6875 C 11.320312 -23.550781 11.378906 -23.410156 11.453125 -23.265625 C 11.535156 -23.117188 11.613281 -22.960938 11.6875 -22.796875 C 11.757812 -22.660156 11.835938 -22.546875 11.921875 -22.453125 C 12.066406 -22.335938 12.160156 -22.175781 12.203125 -21.96875 C 12.191406 -21.863281 12.207031 -21.765625 12.25 -21.671875 C 12.300781 -21.585938 12.347656 -21.492188 12.390625 -21.390625 C 12.679688 -20.796875 12.96875 -20.203125 13.25 -19.609375 C 13.539062 -19.023438 13.847656 -18.441406 14.171875 -17.859375 C 14.234375 -17.722656 14.3125 -17.578125 14.40625 -17.421875 C 14.507812 -17.273438 14.609375 -17.125 14.703125 -16.96875 C 14.785156 -16.84375 14.867188 -16.703125 14.953125 -16.546875 C 15.035156 -16.390625 15.085938 -16.21875 15.109375 -16.03125 C 15.109375 -15.945312 15.132812 -15.875 15.1875 -15.8125 C 15.238281 -15.75 15.28125 -15.675781 15.3125 -15.59375 L 15.75 -14.671875 C 15.800781 -14.578125 15.867188 -14.476562 15.953125 -14.375 C 16.035156 -14.269531 16.109375 -14.160156 16.171875 -14.046875 C 16.222656 -13.960938 16.289062 -13.929688 16.375 -13.953125 C 16.457031 -13.960938 16.515625 -14.023438 16.546875 -14.140625 L 16.640625 -14.59375 C 16.703125 -15.050781 16.765625 -15.507812 16.828125 -15.96875 C 16.890625 -16.425781 16.945312 -16.878906 17 -17.328125 C 17.03125 -17.546875 17.050781 -17.765625 17.0625 -17.984375 C 17.082031 -18.210938 17.097656 -18.425781 17.109375 -18.625 C 17.128906 -18.78125 17.144531 -18.925781 17.15625 -19.0625 C 17.164062 -19.207031 17.203125 -19.347656 17.265625 -19.484375 C 17.316406 -19.597656 17.347656 -19.707031 17.359375 -19.8125 C 17.367188 -19.925781 17.378906 -20.039062 17.390625 -20.15625 L 17.53125 -21.09375 L 17.5625 -21.453125 C 17.5625 -21.765625 17.597656 -22.015625 17.671875 -22.203125 C 17.691406 -22.335938 17.691406 -22.472656 17.671875 -22.609375 C 17.648438 -22.742188 17.628906 -22.875 17.609375 -23 C 17.566406 -23.21875 17.5 -23.421875 17.40625 -23.609375 C 17.320312 -23.804688 17.234375 -24.003906 17.140625 -24.203125 C 17.023438 -24.410156 16.984375 -24.601562 17.015625 -24.78125 C 17.078125 -25.15625 17.273438 -25.359375 17.609375 -25.390625 C 17.648438 -25.398438 17.703125 -25.410156 17.765625 -25.421875 C 17.828125 -25.429688 17.890625 -25.429688 17.953125 -25.421875 C 18.097656 -25.421875 18.242188 -25.425781 18.390625 -25.4375 C 18.535156 -25.457031 18.6875 -25.476562 18.84375 -25.5 L 20.671875 -25.8125 C 20.773438 -25.820312 20.851562 -25.84375 20.90625 -25.875 C 21.207031 -26.03125 21.546875 -26.109375 21.921875 -26.109375 C 22.003906 -26.109375 22.078125 -26.113281 22.140625 -26.125 C 22.203125 -26.132812 22.265625 -26.144531 22.328125 -26.15625 C 22.648438 -26.207031 22.894531 -26.085938 23.0625 -25.796875 C 23.113281 -25.710938 23.144531 -25.640625 23.15625 -25.578125 C 23.207031 -25.523438 23.253906 -25.46875 23.296875 -25.40625 C 23.335938 -25.34375 23.382812 -25.285156 23.4375 -25.234375 C 23.65625 -25.078125 23.773438 -24.832031 23.796875 -24.5 C 23.785156 -24.4375 23.796875 -24.363281 23.828125 -24.28125 L 24.90625 -22.15625 C 24.90625 -22.125 24.929688 -22.09375 24.984375 -22.0625 C 25.109375 -21.976562 25.207031 -21.875 25.28125 -21.75 C 25.363281 -21.625 25.425781 -21.488281 25.46875 -21.34375 L 25.765625 -20.75 C 25.816406 -20.675781 25.847656 -20.601562 25.859375 -20.53125 C 25.878906 -20.457031 25.894531 -20.378906 25.90625 -20.296875 C 25.945312 -20.171875 26 -20.054688 26.0625 -19.953125 C 26.125 -19.847656 26.175781 -19.738281 26.21875 -19.625 L 26.484375 -19.078125 C 26.535156 -18.992188 26.582031 -18.910156 26.625 -18.828125 C 26.675781 -18.742188 26.738281 -18.664062 26.8125 -18.59375 C 27.019531 -18.414062 27.144531 -18.191406 27.1875 -17.921875 C 27.269531 -17.648438 27.375 -17.398438 27.5 -17.171875 C 27.75 -16.835938 27.9375 -16.457031 28.0625 -16.03125 C 28.113281 -15.84375 28.1875 -15.660156 28.28125 -15.484375 C 28.382812 -15.304688 28.484375 -15.128906 28.578125 -14.953125 C 28.679688 -14.722656 28.820312 -14.535156 29 -14.390625 C 29.09375 -14.304688 29.160156 -14.191406 29.203125 -14.046875 C 29.253906 -13.910156 29.300781 -13.785156 29.34375 -13.671875 L 29.578125 -13.203125 C 29.640625 -13.066406 29.703125 -12.929688 29.765625 -12.796875 C 29.828125 -12.671875 29.890625 -12.546875 29.953125 -12.421875 C 29.984375 -12.359375 30.007812 -12.296875 30.03125 -12.234375 C 30.050781 -12.179688 30.066406 -12.125 30.078125 -12.0625 C 30.085938 -11.96875 30.113281 -11.890625 30.15625 -11.828125 C 30.195312 -11.773438 30.238281 -11.707031 30.28125 -11.625 C 30.4375 -11.320312 30.59375 -11 30.75 -10.65625 C 30.914062 -10.320312 31.109375 -10 31.328125 -9.6875 C 31.378906 -9.632812 31.414062 -9.578125 31.4375 -9.515625 C 31.46875 -9.460938 31.515625 -9.421875 31.578125 -9.390625 C 31.785156 -9.285156 31.914062 -9.097656 31.96875 -8.828125 C 31.96875 -8.785156 31.976562 -8.742188 32 -8.703125 C 32.019531 -8.660156 32.039062 -8.617188 32.0625 -8.578125 C 32.195312 -8.453125 32.332031 -8.3125 32.46875 -8.15625 C 32.613281 -8 32.785156 -7.882812 32.984375 -7.8125 C 33.023438 -7.789062 33.050781 -7.769531 33.0625 -7.75 C 33.082031 -7.738281 33.101562 -7.722656 33.125 -7.703125 C 33.28125 -7.535156 33.457031 -7.414062 33.65625 -7.34375 C 33.863281 -7.28125 34.0625 -7.222656 34.25 -7.171875 L 34.875 -7.109375 C 35.1875 -7.097656 35.367188 -6.921875 35.421875 -6.578125 C 35.472656 -6.273438 35.367188 -6.046875 35.109375 -5.890625 C 35.046875 -5.859375 34.960938 -5.835938 34.859375 -5.828125 Z M 34.859375 -5.828125 "/></g></g></g><g fill="#61cbc1" fill-opacity="1"><g transform="translate(191.408976, 120.359022)"><g><path d="M 17.390625 2.296875 C 17.234375 2.234375 17.019531 2.238281 16.75 2.3125 C 16.46875 2.375 16.210938 2.328125 15.984375 2.171875 C 15.941406 2.117188 15.898438 2.09375 15.859375 2.09375 C 15.710938 2.070312 15.5625 2.046875 15.40625 2.015625 C 15.257812 1.984375 15.109375 1.976562 14.953125 2 C 14.898438 2.007812 14.84375 2.007812 14.78125 2 C 14.71875 2 14.648438 1.992188 14.578125 1.984375 C 14.429688 1.941406 14.289062 1.921875 14.15625 1.921875 C 14.03125 1.929688 13.894531 1.925781 13.75 1.90625 C 13.601562 1.882812 13.457031 1.859375 13.3125 1.828125 C 13.164062 1.796875 13.007812 1.757812 12.84375 1.71875 C 12.707031 1.695312 12.582031 1.671875 12.46875 1.640625 C 12.351562 1.617188 12.234375 1.601562 12.109375 1.59375 L 8.609375 1.125 C 8.503906 1.101562 8.398438 1.097656 8.296875 1.109375 C 8.191406 1.117188 8.085938 1.101562 7.984375 1.0625 C 7.773438 0.988281 7.554688 0.941406 7.328125 0.921875 C 7.109375 0.910156 6.878906 0.890625 6.640625 0.859375 C 6.554688 0.847656 6.460938 0.835938 6.359375 0.828125 C 6.253906 0.828125 6.15625 0.820312 6.0625 0.8125 C 5.71875 0.71875 5.351562 0.65625 4.96875 0.625 C 4.582031 0.601562 4.21875 0.554688 3.875 0.484375 C 3.8125 0.472656 3.742188 0.46875 3.671875 0.46875 C 3.597656 0.46875 3.519531 0.460938 3.4375 0.453125 C 3.289062 0.441406 3.125 0.414062 2.9375 0.375 C 2.757812 0.34375 2.59375 0.316406 2.4375 0.296875 C 2.289062 0.273438 2.164062 0.1875 2.0625 0.03125 C 1.957031 -0.113281 1.90625 -0.257812 1.90625 -0.40625 C 1.914062 -0.550781 1.984375 -0.679688 2.109375 -0.796875 C 2.234375 -0.910156 2.367188 -0.96875 2.515625 -0.96875 C 3.066406 -1 3.515625 -1.171875 3.859375 -1.484375 C 4.003906 -1.617188 4.128906 -1.757812 4.234375 -1.90625 C 4.335938 -2.0625 4.429688 -2.234375 4.515625 -2.421875 C 4.628906 -2.597656 4.71875 -2.78125 4.78125 -2.96875 C 4.851562 -3.164062 4.910156 -3.363281 4.953125 -3.5625 C 5.046875 -3.96875 5.117188 -4.378906 5.171875 -4.796875 C 5.234375 -5.222656 5.289062 -5.640625 5.34375 -6.046875 C 5.351562 -6.128906 5.347656 -6.179688 5.328125 -6.203125 C 5.328125 -6.335938 5.332031 -6.46875 5.34375 -6.59375 C 5.363281 -6.71875 5.394531 -6.84375 5.4375 -6.96875 C 5.476562 -7.175781 5.507812 -7.375 5.53125 -7.5625 C 5.5625 -7.757812 5.570312 -7.953125 5.5625 -8.140625 L 5.578125 -8.3125 C 5.597656 -8.414062 5.609375 -8.507812 5.609375 -8.59375 C 5.617188 -8.6875 5.628906 -8.773438 5.640625 -8.859375 C 5.671875 -9.140625 5.691406 -9.410156 5.703125 -9.671875 C 5.722656 -9.929688 5.753906 -10.203125 5.796875 -10.484375 C 5.804688 -10.566406 5.820312 -10.644531 5.84375 -10.71875 C 5.863281 -10.789062 5.890625 -10.863281 5.921875 -10.9375 C 5.992188 -11.300781 6.039062 -11.675781 6.0625 -12.0625 C 6.050781 -12.15625 6.054688 -12.238281 6.078125 -12.3125 C 6.097656 -12.382812 6.117188 -12.457031 6.140625 -12.53125 C 6.210938 -12.75 6.257812 -12.976562 6.28125 -13.21875 C 6.300781 -13.457031 6.328125 -13.703125 6.359375 -13.953125 L 6.65625 -16.109375 C 6.664062 -16.191406 6.675781 -16.269531 6.6875 -16.34375 C 6.695312 -16.414062 6.695312 -16.492188 6.6875 -16.578125 C 6.695312 -16.734375 6.707031 -16.878906 6.71875 -17.015625 C 6.738281 -17.148438 6.75 -17.289062 6.75 -17.4375 C 6.769531 -17.71875 6.753906 -17.992188 6.703125 -18.265625 C 6.660156 -18.546875 6.582031 -18.820312 6.46875 -19.09375 C 6.351562 -19.363281 6.203125 -19.59375 6.015625 -19.78125 C 5.898438 -19.894531 5.773438 -19.988281 5.640625 -20.0625 C 5.515625 -20.144531 5.382812 -20.207031 5.25 -20.25 C 5.207031 -20.269531 5.15625 -20.285156 5.09375 -20.296875 C 4.738281 -20.453125 4.601562 -20.703125 4.6875 -21.046875 C 4.78125 -21.398438 5.015625 -21.570312 5.390625 -21.5625 C 5.585938 -21.53125 5.789062 -21.53125 6 -21.5625 C 6.320312 -21.582031 6.578125 -21.53125 6.765625 -21.40625 C 6.804688 -21.382812 6.878906 -21.363281 6.984375 -21.34375 L 9.46875 -21.015625 C 9.613281 -20.992188 9.753906 -20.976562 9.890625 -20.96875 C 10.035156 -20.96875 10.175781 -20.96875 10.3125 -20.96875 C 10.519531 -20.96875 10.710938 -20.957031 10.890625 -20.9375 C 11.078125 -20.914062 11.273438 -20.890625 11.484375 -20.859375 C 11.617188 -20.859375 11.753906 -20.84375 11.890625 -20.8125 C 12.023438 -20.789062 12.148438 -20.734375 12.265625 -20.640625 C 12.265625 -20.640625 12.316406 -20.632812 12.421875 -20.625 C 12.972656 -20.550781 13.53125 -20.46875 14.09375 -20.375 C 14.65625 -20.289062 15.222656 -20.222656 15.796875 -20.171875 C 15.921875 -20.148438 16.050781 -20.144531 16.1875 -20.15625 C 16.320312 -20.164062 16.453125 -20.15625 16.578125 -20.125 C 16.679688 -20.113281 16.785156 -20.085938 16.890625 -20.046875 C 17.003906 -20.015625 17.113281 -20.003906 17.21875 -20.015625 C 17.320312 -19.992188 17.429688 -19.972656 17.546875 -19.953125 C 17.671875 -19.941406 17.773438 -19.941406 17.859375 -19.953125 C 17.960938 -19.941406 18.066406 -19.929688 18.171875 -19.921875 C 18.273438 -19.910156 18.375 -19.882812 18.46875 -19.84375 C 18.613281 -19.800781 18.753906 -19.769531 18.890625 -19.75 C 19.023438 -19.738281 19.164062 -19.722656 19.3125 -19.703125 C 19.914062 -19.597656 20.503906 -19.390625 21.078125 -19.078125 L 21.234375 -19 C 21.535156 -18.894531 21.804688 -18.71875 22.046875 -18.46875 C 22.179688 -18.351562 22.3125 -18.242188 22.4375 -18.140625 C 22.5625 -18.035156 22.691406 -17.929688 22.828125 -17.828125 C 22.910156 -17.742188 22.984375 -17.660156 23.046875 -17.578125 C 23.109375 -17.492188 23.144531 -17.40625 23.15625 -17.3125 C 23.175781 -17.238281 23.203125 -17.175781 23.234375 -17.125 C 23.273438 -17.082031 23.300781 -17.039062 23.3125 -17 C 23.75 -16.300781 24.023438 -15.585938 24.140625 -14.859375 C 24.140625 -14.835938 24.140625 -14.816406 24.140625 -14.796875 C 24.148438 -14.773438 24.15625 -14.753906 24.15625 -14.734375 C 24.238281 -14.566406 24.28125 -14.394531 24.28125 -14.21875 C 24.289062 -14.050781 24.296875 -13.890625 24.296875 -13.734375 C 24.304688 -13.554688 24.285156 -13.382812 24.234375 -13.21875 C 24.179688 -13.050781 24.125 -12.890625 24.0625 -12.734375 C 23.9375 -12.515625 23.878906 -12.269531 23.890625 -12 C 23.878906 -11.613281 23.753906 -11.3125 23.515625 -11.09375 C 23.441406 -11.019531 23.375 -10.941406 23.3125 -10.859375 C 23.257812 -10.785156 23.207031 -10.695312 23.15625 -10.59375 C 23.039062 -10.363281 22.898438 -10.144531 22.734375 -9.9375 C 22.566406 -9.738281 22.382812 -9.535156 22.1875 -9.328125 C 21.976562 -9.117188 21.9375 -8.882812 22.0625 -8.625 C 22.09375 -8.539062 22.128906 -8.484375 22.171875 -8.453125 C 22.265625 -8.378906 22.359375 -8.296875 22.453125 -8.203125 C 22.546875 -8.117188 22.644531 -8.050781 22.75 -8 C 22.820312 -7.945312 22.890625 -7.882812 22.953125 -7.8125 C 23.023438 -7.75 23.078125 -7.679688 23.109375 -7.609375 C 23.253906 -7.441406 23.382812 -7.269531 23.5 -7.09375 C 23.625 -6.925781 23.742188 -6.753906 23.859375 -6.578125 C 23.878906 -6.554688 23.90625 -6.53125 23.9375 -6.5 C 23.976562 -6.46875 24.007812 -6.441406 24.03125 -6.421875 C 24.164062 -6.296875 24.25 -6.128906 24.28125 -5.921875 C 24.332031 -5.671875 24.382812 -5.425781 24.4375 -5.1875 C 24.488281 -4.957031 24.550781 -4.726562 24.625 -4.5 C 24.675781 -4.34375 24.695312 -4.171875 24.6875 -3.984375 C 24.675781 -3.796875 24.671875 -3.609375 24.671875 -3.421875 C 24.660156 -3.078125 24.597656 -2.734375 24.484375 -2.390625 C 24.367188 -2.046875 24.234375 -1.695312 24.078125 -1.34375 C 24.078125 -1.300781 24.066406 -1.269531 24.046875 -1.25 C 23.898438 -1.113281 23.769531 -0.945312 23.65625 -0.75 C 23.539062 -0.550781 23.421875 -0.363281 23.296875 -0.1875 C 23.273438 -0.175781 23.257812 -0.15625 23.25 -0.125 C 23.25 -0.09375 23.238281 -0.0664062 23.21875 -0.046875 C 23.175781 0.109375 23.070312 0.226562 22.90625 0.3125 C 22.84375 0.34375 22.753906 0.410156 22.640625 0.515625 C 22.222656 0.898438 21.804688 1.210938 21.390625 1.453125 L 21.21875 1.5625 C 20.726562 1.96875 20.164062 2.191406 19.53125 2.234375 C 19.320312 2.242188 19.117188 2.257812 18.921875 2.28125 C 18.722656 2.3125 18.519531 2.332031 18.3125 2.34375 C 18.164062 2.351562 18.015625 2.351562 17.859375 2.34375 C 17.710938 2.332031 17.554688 2.316406 17.390625 2.296875 Z M 12.84375 -0.734375 L 13.84375 -0.59375 C 14.007812 -0.570312 14.179688 -0.550781 14.359375 -0.53125 C 14.535156 -0.507812 14.707031 -0.5 14.875 -0.5 C 15.050781 -0.488281 15.210938 -0.484375 15.359375 -0.484375 C 15.503906 -0.492188 15.648438 -0.488281 15.796875 -0.46875 C 16.003906 -0.4375 16.210938 -0.5 16.421875 -0.65625 C 16.535156 -0.75 16.644531 -0.859375 16.75 -0.984375 C 16.851562 -1.109375 16.945312 -1.238281 17.03125 -1.375 C 17.125 -1.539062 17.21875 -1.703125 17.3125 -1.859375 C 17.414062 -2.023438 17.492188 -2.207031 17.546875 -2.40625 C 17.585938 -2.53125 17.625 -2.65625 17.65625 -2.78125 C 17.695312 -2.90625 17.707031 -3.035156 17.6875 -3.171875 C 17.6875 -3.335938 17.703125 -3.492188 17.734375 -3.640625 C 17.796875 -3.753906 17.832031 -3.878906 17.84375 -4.015625 C 17.851562 -4.148438 17.84375 -4.28125 17.8125 -4.40625 C 17.8125 -4.71875 17.789062 -5.015625 17.75 -5.296875 C 17.707031 -5.585938 17.617188 -5.878906 17.484375 -6.171875 C 17.367188 -6.441406 17.253906 -6.707031 17.140625 -6.96875 C 17.023438 -7.238281 16.898438 -7.484375 16.765625 -7.703125 C 16.628906 -7.992188 16.367188 -8.195312 15.984375 -8.3125 C 15.796875 -8.375 15.613281 -8.410156 15.4375 -8.421875 C 15.257812 -8.441406 15.078125 -8.460938 14.890625 -8.484375 C 14.640625 -8.566406 14.351562 -8.578125 14.03125 -8.515625 C 13.726562 -8.441406 13.453125 -8.488281 13.203125 -8.65625 C 13.097656 -8.707031 12.988281 -8.738281 12.875 -8.75 C 12.769531 -8.769531 12.65625 -8.789062 12.53125 -8.8125 C 12.28125 -8.84375 12.101562 -8.726562 12 -8.46875 C 11.914062 -8.3125 11.875 -8.109375 11.875 -7.859375 C 11.90625 -7.722656 11.90625 -7.59375 11.875 -7.46875 C 11.84375 -7.34375 11.820312 -7.207031 11.8125 -7.0625 C 11.695312 -6.675781 11.609375 -6.253906 11.546875 -5.796875 C 11.453125 -5.097656 11.359375 -4.398438 11.265625 -3.703125 C 11.171875 -3.015625 11.085938 -2.328125 11.015625 -1.640625 C 10.960938 -1.203125 11.160156 -0.957031 11.609375 -0.90625 C 11.703125 -0.882812 11.804688 -0.863281 11.921875 -0.84375 C 12.035156 -0.832031 12.144531 -0.832031 12.25 -0.84375 C 12.351562 -0.851562 12.453125 -0.835938 12.546875 -0.796875 C 12.640625 -0.765625 12.738281 -0.742188 12.84375 -0.734375 Z M 12.78125 -15.03125 C 12.6875 -14.519531 12.609375 -14 12.546875 -13.46875 C 12.492188 -12.945312 12.460938 -12.425781 12.453125 -11.90625 C 12.453125 -11.757812 12.476562 -11.625 12.53125 -11.5 C 12.582031 -11.382812 12.726562 -11.320312 12.96875 -11.3125 L 13.953125 -11.171875 C 14.015625 -11.171875 14.050781 -11.15625 14.0625 -11.125 C 14.144531 -11.09375 14.222656 -11.066406 14.296875 -11.046875 C 14.378906 -11.023438 14.453125 -11.007812 14.515625 -11 C 14.617188 -11.007812 14.722656 -11 14.828125 -10.96875 C 14.941406 -10.945312 15.039062 -10.941406 15.125 -10.953125 C 15.226562 -10.941406 15.28125 -10.9375 15.28125 -10.9375 C 15.375 -10.96875 15.457031 -10.976562 15.53125 -10.96875 C 15.601562 -10.957031 15.679688 -10.945312 15.765625 -10.9375 C 16.003906 -10.882812 16.226562 -10.957031 16.4375 -11.15625 C 16.789062 -11.5 17.015625 -11.929688 17.109375 -12.453125 C 17.140625 -12.734375 17.171875 -12.992188 17.203125 -13.234375 C 17.242188 -13.484375 17.289062 -13.742188 17.34375 -14.015625 C 17.4375 -14.410156 17.460938 -14.796875 17.421875 -15.171875 C 17.378906 -15.546875 17.300781 -15.921875 17.1875 -16.296875 C 17.144531 -16.410156 17.082031 -16.523438 17 -16.640625 C 16.925781 -16.753906 16.84375 -16.847656 16.75 -16.921875 C 16.519531 -17.078125 16.320312 -17.265625 16.15625 -17.484375 C 16.125 -17.546875 16.035156 -17.609375 15.890625 -17.671875 C 15.578125 -17.753906 15.273438 -17.785156 14.984375 -17.765625 C 14.960938 -17.742188 14.910156 -17.738281 14.828125 -17.75 C 14.640625 -17.800781 14.453125 -17.828125 14.265625 -17.828125 C 14.085938 -17.828125 13.90625 -17.84375 13.71875 -17.875 C 13.46875 -17.90625 13.285156 -17.800781 13.171875 -17.5625 C 13.140625 -17.457031 13.109375 -17.335938 13.078125 -17.203125 C 13.054688 -17.078125 13.035156 -16.96875 13.015625 -16.875 C 12.960938 -16.570312 12.921875 -16.265625 12.890625 -15.953125 C 12.859375 -15.648438 12.820312 -15.34375 12.78125 -15.03125 Z M 12.78125 -15.03125 "/></g></g></g><g fill="#61cbc1" fill-opacity="1"><g transform="translate(216.876065, 123.713738)"><g><path d="M 13.71875 -18.203125 L 13.703125 -18.171875 C 14.265625 -17.941406 14.8125 -17.71875 15.34375 -17.5 C 15.882812 -17.28125 16.429688 -17.070312 16.984375 -16.875 C 17.097656 -16.820312 17.21875 -16.773438 17.34375 -16.734375 C 17.46875 -16.691406 17.59375 -16.65625 17.71875 -16.625 C 17.882812 -16.601562 18.046875 -16.5625 18.203125 -16.5 C 18.359375 -16.4375 18.5 -16.363281 18.625 -16.28125 C 18.695312 -16.226562 18.820312 -16.171875 19 -16.109375 C 19.15625 -16.046875 19.304688 -15.972656 19.453125 -15.890625 C 19.609375 -15.804688 19.757812 -15.722656 19.90625 -15.640625 C 20.132812 -15.523438 20.25 -15.347656 20.25 -15.109375 C 20.25 -14.867188 20.15625 -14.6875 19.96875 -14.5625 C 19.90625 -14.539062 19.875 -14.519531 19.875 -14.5 C 19.707031 -14.332031 19.46875 -14.289062 19.15625 -14.375 C 18.863281 -14.46875 18.585938 -14.46875 18.328125 -14.375 C 18.078125 -14.289062 17.835938 -14.160156 17.609375 -13.984375 C 17.378906 -13.796875 17.175781 -13.585938 17 -13.359375 C 16.820312 -13.128906 16.660156 -12.882812 16.515625 -12.625 C 16.421875 -12.457031 16.34375 -12.289062 16.28125 -12.125 C 16.226562 -11.957031 16.179688 -11.796875 16.140625 -11.640625 C 16.109375 -11.503906 16.066406 -11.382812 16.015625 -11.28125 C 15.960938 -11.1875 15.882812 -11.101562 15.78125 -11.03125 C 15.738281 -10.976562 15.703125 -10.914062 15.671875 -10.84375 L 14.734375 -8.5625 C 14.691406 -8.46875 14.664062 -8.375 14.65625 -8.28125 C 14.644531 -8.195312 14.628906 -8.101562 14.609375 -8 C 14.597656 -7.925781 14.578125 -7.859375 14.546875 -7.796875 C 14.523438 -7.734375 14.503906 -7.671875 14.484375 -7.609375 C 14.390625 -7.421875 14.296875 -7.234375 14.203125 -7.046875 C 14.117188 -6.867188 14.019531 -6.707031 13.90625 -6.5625 L 12.8125 -3.875 C 12.757812 -3.757812 12.722656 -3.632812 12.703125 -3.5 C 12.691406 -3.363281 12.664062 -3.238281 12.625 -3.125 C 12.539062 -2.875 12.46875 -2.609375 12.40625 -2.328125 C 12.351562 -2.054688 12.3125 -1.78125 12.28125 -1.5 C 12.289062 -1.332031 12.296875 -1.171875 12.296875 -1.015625 C 12.304688 -0.859375 12.332031 -0.703125 12.375 -0.546875 C 12.4375 -0.410156 12.472656 -0.269531 12.484375 -0.125 C 12.492188 0.0078125 12.515625 0.144531 12.546875 0.28125 C 12.597656 0.414062 12.640625 0.554688 12.671875 0.703125 C 12.703125 0.847656 12.75 0.988281 12.8125 1.125 C 12.914062 1.375 13.050781 1.601562 13.21875 1.8125 C 13.382812 2.03125 13.5625 2.234375 13.75 2.421875 C 14.007812 2.703125 14.296875 2.921875 14.609375 3.078125 C 14.921875 3.242188 15.25 3.382812 15.59375 3.5 C 15.875 3.570312 16.15625 3.628906 16.4375 3.671875 C 16.71875 3.722656 17 3.734375 17.28125 3.703125 L 17.71875 3.609375 L 18.328125 3.453125 C 18.515625 3.421875 18.6875 3.367188 18.84375 3.296875 C 19.007812 3.222656 19.15625 3.140625 19.28125 3.046875 L 19.390625 2.953125 C 19.523438 2.671875 19.75 2.488281 20.0625 2.40625 C 20.113281 2.375 20.160156 2.335938 20.203125 2.296875 C 20.253906 2.265625 20.300781 2.222656 20.34375 2.171875 C 20.476562 2.035156 20.597656 1.894531 20.703125 1.75 C 20.816406 1.613281 20.910156 1.457031 20.984375 1.28125 C 21.023438 1.175781 21.066406 1.109375 21.109375 1.078125 C 21.265625 0.972656 21.378906 0.835938 21.453125 0.671875 C 21.535156 0.515625 21.617188 0.359375 21.703125 0.203125 C 21.785156 0.046875 21.859375 -0.113281 21.921875 -0.28125 C 21.992188 -0.445312 22.066406 -0.617188 22.140625 -0.796875 L 22.203125 -0.953125 C 22.203125 -1.097656 22.226562 -1.234375 22.28125 -1.359375 C 22.332031 -1.492188 22.375 -1.632812 22.40625 -1.78125 C 22.445312 -1.875 22.484375 -1.96875 22.515625 -2.0625 C 22.546875 -2.164062 22.578125 -2.257812 22.609375 -2.34375 C 22.660156 -2.414062 22.703125 -2.476562 22.734375 -2.53125 C 22.773438 -2.582031 22.820312 -2.640625 22.875 -2.703125 C 22.914062 -2.734375 22.960938 -2.804688 23.015625 -2.921875 L 23.984375 -5.3125 C 24.035156 -5.582031 24.113281 -5.84375 24.21875 -6.09375 C 24.320312 -6.351562 24.4375 -6.601562 24.5625 -6.84375 C 24.65625 -7.019531 24.738281 -7.195312 24.8125 -7.375 C 24.894531 -7.550781 24.972656 -7.734375 25.046875 -7.921875 C 25.117188 -8.085938 25.179688 -8.257812 25.234375 -8.4375 C 25.296875 -8.613281 25.347656 -8.785156 25.390625 -8.953125 C 25.429688 -9.054688 25.4375 -9.132812 25.40625 -9.1875 C 25.382812 -9.332031 25.382812 -9.476562 25.40625 -9.625 C 25.4375 -9.78125 25.46875 -9.929688 25.5 -10.078125 C 25.550781 -10.242188 25.570312 -10.398438 25.5625 -10.546875 C 25.550781 -10.691406 25.523438 -10.84375 25.484375 -11 C 25.460938 -11.101562 25.421875 -11.191406 25.359375 -11.265625 C 25.304688 -11.347656 25.25 -11.429688 25.1875 -11.515625 C 25.164062 -11.578125 25.140625 -11.632812 25.109375 -11.6875 C 25.085938 -11.738281 25.066406 -11.796875 25.046875 -11.859375 C 25.015625 -12.015625 24.921875 -12.148438 24.765625 -12.265625 C 24.742188 -12.265625 24.722656 -12.273438 24.703125 -12.296875 C 24.691406 -12.316406 24.664062 -12.332031 24.625 -12.34375 C 24.363281 -12.519531 24.265625 -12.738281 24.328125 -13 C 24.421875 -13.351562 24.628906 -13.539062 24.953125 -13.5625 C 24.984375 -13.570312 25.03125 -13.566406 25.09375 -13.546875 C 25.257812 -13.472656 25.441406 -13.414062 25.640625 -13.375 C 25.847656 -13.34375 26.035156 -13.28125 26.203125 -13.1875 C 26.296875 -13.144531 26.375 -13.101562 26.4375 -13.0625 C 26.488281 -13 26.554688 -12.945312 26.640625 -12.90625 C 26.734375 -12.875 26.816406 -12.84375 26.890625 -12.8125 C 27.046875 -12.75 27.203125 -12.675781 27.359375 -12.59375 C 27.515625 -12.519531 27.660156 -12.46875 27.796875 -12.4375 C 28.253906 -12.257812 28.691406 -12.082031 29.109375 -11.90625 C 29.535156 -11.738281 29.957031 -11.570312 30.375 -11.40625 C 30.570312 -11.320312 30.753906 -11.234375 30.921875 -11.140625 C 31.085938 -11.054688 31.269531 -10.976562 31.46875 -10.90625 C 31.59375 -10.84375 31.6875 -10.734375 31.75 -10.578125 C 31.820312 -10.429688 31.847656 -10.296875 31.828125 -10.171875 C 31.796875 -10.023438 31.710938 -9.890625 31.578125 -9.765625 C 31.441406 -9.648438 31.289062 -9.601562 31.125 -9.625 L 30.921875 -9.609375 C 30.671875 -9.703125 30.425781 -9.707031 30.1875 -9.625 C 30.101562 -9.582031 30.015625 -9.550781 29.921875 -9.53125 C 29.835938 -9.507812 29.757812 -9.488281 29.6875 -9.46875 C 29.226562 -9.300781 28.867188 -9.035156 28.609375 -8.671875 C 28.515625 -8.566406 28.4375 -8.460938 28.375 -8.359375 C 28.320312 -8.253906 28.257812 -8.148438 28.1875 -8.046875 C 28.164062 -8.035156 28.148438 -8.007812 28.140625 -7.96875 C 28.140625 -7.925781 28.128906 -7.882812 28.109375 -7.84375 C 27.984375 -7.539062 27.859375 -7.226562 27.734375 -6.90625 C 27.617188 -6.59375 27.46875 -6.289062 27.28125 -6 C 27.144531 -5.789062 27.066406 -5.566406 27.046875 -5.328125 C 27.023438 -5.160156 26.972656 -4.992188 26.890625 -4.828125 C 26.804688 -4.660156 26.734375 -4.5 26.671875 -4.34375 L 26.5 -3.921875 C 26.46875 -3.835938 26.4375 -3.753906 26.40625 -3.671875 C 26.375 -3.597656 26.320312 -3.53125 26.25 -3.46875 C 26.207031 -3.4375 26.164062 -3.375 26.125 -3.28125 L 25.125 -0.828125 C 25.113281 -0.804688 25.097656 -0.785156 25.078125 -0.765625 C 25.066406 -0.753906 25.0625 -0.726562 25.0625 -0.6875 C 25.082031 -0.539062 25.066406 -0.40625 25.015625 -0.28125 C 24.960938 -0.15625 24.90625 -0.0234375 24.84375 0.109375 L 24.625 0.671875 C 24.59375 0.742188 24.5625 0.8125 24.53125 0.875 C 24.5 0.945312 24.457031 1.015625 24.40625 1.078125 C 24.257812 1.242188 24.148438 1.460938 24.078125 1.734375 C 23.890625 2.253906 23.601562 2.738281 23.21875 3.1875 C 22.925781 3.488281 22.644531 3.800781 22.375 4.125 C 22.101562 4.445312 21.804688 4.734375 21.484375 4.984375 C 21.222656 5.171875 21.003906 5.367188 20.828125 5.578125 C 20.742188 5.679688 20.632812 5.765625 20.5 5.828125 C 20.375 5.890625 20.242188 5.945312 20.109375 6 C 20.003906 6.039062 19.890625 6.085938 19.765625 6.140625 C 19.640625 6.191406 19.503906 6.222656 19.359375 6.234375 C 19.296875 6.222656 19.226562 6.238281 19.15625 6.28125 C 19.082031 6.320312 19.007812 6.347656 18.9375 6.359375 C 18.4375 6.535156 17.921875 6.632812 17.390625 6.65625 C 17.242188 6.664062 17.101562 6.679688 16.96875 6.703125 C 16.84375 6.734375 16.71875 6.753906 16.59375 6.765625 C 16.445312 6.773438 16.304688 6.78125 16.171875 6.78125 C 16.046875 6.78125 15.914062 6.742188 15.78125 6.671875 C 15.695312 6.609375 15.59375 6.578125 15.46875 6.578125 C 15.351562 6.578125 15.242188 6.570312 15.140625 6.5625 C 14.941406 6.507812 14.738281 6.457031 14.53125 6.40625 C 14.332031 6.363281 14.113281 6.3125 13.875 6.25 C 13.570312 6.175781 13.273438 6.078125 12.984375 5.953125 C 12.691406 5.835938 12.398438 5.722656 12.109375 5.609375 C 11.992188 5.554688 11.875 5.5 11.75 5.4375 C 11.632812 5.375 11.523438 5.3125 11.421875 5.25 C 11.398438 5.238281 11.375 5.222656 11.34375 5.203125 C 11.3125 5.179688 11.28125 5.171875 11.25 5.171875 C 11.0625 5.128906 10.894531 5.0625 10.75 4.96875 C 10.601562 4.875 10.453125 4.785156 10.296875 4.703125 C 10.160156 4.597656 10.007812 4.492188 9.84375 4.390625 C 9.675781 4.296875 9.515625 4.191406 9.359375 4.078125 C 9.210938 3.972656 9.097656 3.859375 9.015625 3.734375 C 8.804688 3.460938 8.613281 3.222656 8.4375 3.015625 C 7.875 2.347656 7.429688 1.664062 7.109375 0.96875 C 6.890625 0.488281 6.722656 0.0195312 6.609375 -0.4375 C 6.492188 -0.90625 6.410156 -1.382812 6.359375 -1.875 C 6.335938 -2.226562 6.335938 -2.570312 6.359375 -2.90625 C 6.378906 -3.238281 6.414062 -3.578125 6.46875 -3.921875 C 6.519531 -4.140625 6.570312 -4.375 6.625 -4.625 C 6.675781 -4.882812 6.75 -5.132812 6.84375 -5.375 C 7.019531 -5.9375 7.21875 -6.484375 7.4375 -7.015625 C 7.65625 -7.546875 7.878906 -8.085938 8.109375 -8.640625 L 8.453125 -9.765625 C 8.523438 -10.078125 8.648438 -10.320312 8.828125 -10.5 C 8.867188 -10.539062 8.90625 -10.601562 8.9375 -10.6875 L 9.703125 -12.546875 C 9.804688 -12.859375 9.925781 -13.171875 10.0625 -13.484375 C 10.207031 -13.796875 10.332031 -14.101562 10.4375 -14.40625 C 10.625 -14.875 10.757812 -15.367188 10.84375 -15.890625 C 10.8125 -15.941406 10.796875 -15.96875 10.796875 -15.96875 C 10.785156 -16.15625 10.765625 -16.351562 10.734375 -16.5625 C 10.710938 -16.78125 10.679688 -16.976562 10.640625 -17.15625 C 10.535156 -17.625 10.273438 -18.003906 9.859375 -18.296875 C 9.691406 -18.410156 9.597656 -18.585938 9.578125 -18.828125 C 9.554688 -19.078125 9.613281 -19.265625 9.75 -19.390625 C 9.988281 -19.585938 10.210938 -19.644531 10.421875 -19.5625 Z M 13.71875 -18.203125 "/></g></g></g><g fill="#61cbc1" fill-opacity="1"><g transform="translate(242.444144, 134.538808)"><g><path d="M 22.09375 0.59375 C 22.007812 0.53125 21.925781 0.457031 21.84375 0.375 C 21.757812 0.300781 21.660156 0.25 21.546875 0.21875 C 21.484375 0.164062 21.441406 0.125 21.421875 0.09375 C 21.265625 -0.0820312 21.117188 -0.269531 20.984375 -0.46875 C 20.859375 -0.664062 20.75 -0.882812 20.65625 -1.125 C 20.539062 -1.4375 20.453125 -1.742188 20.390625 -2.046875 C 20.265625 -2.429688 20.398438 -2.726562 20.796875 -2.9375 C 21.015625 -3.039062 21.210938 -3.148438 21.390625 -3.265625 C 21.566406 -3.378906 21.734375 -3.507812 21.890625 -3.65625 C 22.429688 -4.113281 22.785156 -4.664062 22.953125 -5.3125 C 22.984375 -5.382812 22.992188 -5.457031 22.984375 -5.53125 C 22.972656 -5.601562 22.96875 -5.675781 22.96875 -5.75 C 22.925781 -5.9375 22.90625 -6.128906 22.90625 -6.328125 C 22.90625 -6.523438 22.859375 -6.71875 22.765625 -6.90625 C 22.691406 -7.03125 22.617188 -7.148438 22.546875 -7.265625 C 22.484375 -7.378906 22.378906 -7.476562 22.234375 -7.5625 C 22.035156 -7.675781 21.878906 -7.859375 21.765625 -8.109375 C 21.679688 -8.210938 21.609375 -8.289062 21.546875 -8.34375 L 21.1875 -8.59375 C 21.125 -8.644531 21.054688 -8.691406 20.984375 -8.734375 C 20.910156 -8.785156 20.820312 -8.820312 20.71875 -8.84375 C 20.570312 -8.875 20.425781 -8.941406 20.28125 -9.046875 C 20.082031 -9.191406 19.898438 -9.269531 19.734375 -9.28125 C 19.546875 -9.332031 19.347656 -9.359375 19.140625 -9.359375 C 18.929688 -9.367188 18.734375 -9.332031 18.546875 -9.25 C 18.378906 -9.175781 18.257812 -9.085938 18.1875 -8.984375 C 17.9375 -8.671875 17.796875 -8.320312 17.765625 -7.9375 C 17.773438 -7.875 17.765625 -7.8125 17.734375 -7.75 C 17.703125 -7.695312 17.679688 -7.644531 17.671875 -7.59375 C 17.628906 -7.5 17.617188 -7.378906 17.640625 -7.234375 C 17.671875 -6.867188 17.742188 -6.503906 17.859375 -6.140625 C 17.972656 -5.773438 18.101562 -5.414062 18.25 -5.0625 C 18.351562 -4.820312 18.457031 -4.585938 18.5625 -4.359375 C 18.675781 -4.140625 18.789062 -3.921875 18.90625 -3.703125 C 18.945312 -3.566406 18.984375 -3.429688 19.015625 -3.296875 C 19.054688 -3.171875 19.113281 -3.046875 19.1875 -2.921875 C 19.320312 -2.710938 19.4375 -2.492188 19.53125 -2.265625 C 19.632812 -2.035156 19.742188 -1.8125 19.859375 -1.59375 C 19.859375 -1.5625 19.882812 -1.53125 19.9375 -1.5 C 20.125 -1.332031 20.257812 -1.109375 20.34375 -0.828125 C 20.394531 -0.617188 20.460938 -0.421875 20.546875 -0.234375 C 20.628906 -0.046875 20.726562 0.125 20.84375 0.28125 C 21 0.46875 21.0625 0.679688 21.03125 0.921875 C 21.050781 0.972656 21.070312 1.023438 21.09375 1.078125 C 21.125 1.128906 21.132812 1.179688 21.125 1.234375 C 21.3125 1.648438 21.472656 2.078125 21.609375 2.515625 C 21.753906 2.960938 21.914062 3.398438 22.09375 3.828125 C 22.15625 4.054688 22.171875 4.265625 22.140625 4.453125 C 22.117188 4.535156 22.113281 4.613281 22.125 4.6875 C 22.144531 4.769531 22.160156 4.84375 22.171875 4.90625 C 22.210938 5.363281 22.21875 5.804688 22.1875 6.234375 C 22.164062 6.660156 22.082031 7.097656 21.9375 7.546875 C 21.882812 7.679688 21.828125 7.800781 21.765625 7.90625 C 21.710938 8.019531 21.648438 8.125 21.578125 8.21875 L 21.046875 8.921875 C 20.867188 9.171875 20.675781 9.347656 20.46875 9.453125 L 20.0625 9.734375 C 19.425781 10.148438 18.71875 10.429688 17.9375 10.578125 C 17.175781 10.722656 16.40625 10.71875 15.625 10.5625 C 15.375 10.539062 15.113281 10.46875 14.84375 10.34375 C 14.625 10.257812 14.394531 10.179688 14.15625 10.109375 C 13.925781 10.035156 13.6875 9.945312 13.4375 9.84375 C 13.289062 9.78125 13.140625 9.722656 12.984375 9.671875 C 12.835938 9.617188 12.6875 9.554688 12.53125 9.484375 C 12.46875 9.429688 12.375 9.398438 12.25 9.390625 C 12.007812 9.398438 11.785156 9.296875 11.578125 9.078125 C 11.484375 8.960938 11.378906 8.875 11.265625 8.8125 C 11.148438 8.757812 11.035156 8.703125 10.921875 8.640625 C 10.691406 8.492188 10.460938 8.363281 10.234375 8.25 C 10.003906 8.132812 9.769531 8.023438 9.53125 7.921875 C 9.457031 7.890625 9.390625 7.835938 9.328125 7.765625 C 9.273438 7.703125 9.222656 7.640625 9.171875 7.578125 C 9.066406 7.441406 8.941406 7.320312 8.796875 7.21875 C 8.648438 7.113281 8.5 7 8.34375 6.875 C 8.125 6.75 7.914062 6.613281 7.71875 6.46875 C 7.53125 6.332031 7.347656 6.175781 7.171875 6 C 7.097656 5.925781 7.003906 5.851562 6.890625 5.78125 C 6.785156 5.71875 6.691406 5.644531 6.609375 5.5625 L 6.34375 5.234375 C 6.144531 4.960938 5.945312 4.695312 5.75 4.4375 C 5.550781 4.175781 5.347656 3.914062 5.140625 3.65625 C 5.117188 3.644531 5.109375 3.628906 5.109375 3.609375 C 5.109375 3.597656 5.109375 3.59375 5.109375 3.59375 C 4.847656 3.375 4.632812 3.132812 4.46875 2.875 C 4.3125 2.613281 4.179688 2.335938 4.078125 2.046875 C 4.035156 1.898438 3.984375 1.757812 3.921875 1.625 C 3.859375 1.488281 3.789062 1.359375 3.71875 1.234375 C 3.613281 1.015625 3.53125 0.800781 3.46875 0.59375 C 3.414062 0.382812 3.367188 0.171875 3.328125 -0.046875 C 3.273438 -0.191406 3.273438 -0.3125 3.328125 -0.40625 C 3.347656 -0.488281 3.359375 -0.566406 3.359375 -0.640625 C 3.359375 -0.710938 3.363281 -0.785156 3.375 -0.859375 C 3.382812 -1.703125 3.582031 -2.492188 3.96875 -3.234375 C 4 -3.285156 4.015625 -3.320312 4.015625 -3.34375 C 4.054688 -3.5 4.109375 -3.628906 4.171875 -3.734375 C 4.234375 -3.847656 4.316406 -3.957031 4.421875 -4.0625 C 4.453125 -4.09375 4.484375 -4.117188 4.515625 -4.140625 C 4.546875 -4.171875 4.566406 -4.191406 4.578125 -4.203125 C 4.703125 -4.367188 4.847656 -4.5 5.015625 -4.59375 C 5.203125 -4.675781 5.375 -4.757812 5.53125 -4.84375 C 5.6875 -4.925781 5.847656 -5.015625 6.015625 -5.109375 C 6.128906 -5.148438 6.242188 -5.1875 6.359375 -5.21875 C 6.472656 -5.257812 6.585938 -5.285156 6.703125 -5.296875 C 6.898438 -5.316406 7.09375 -5.328125 7.28125 -5.328125 C 7.46875 -5.335938 7.648438 -5.300781 7.828125 -5.21875 C 7.941406 -5.195312 8.054688 -5.175781 8.171875 -5.15625 C 8.296875 -5.144531 8.40625 -5.117188 8.5 -5.078125 C 8.882812 -4.921875 9.210938 -4.753906 9.484375 -4.578125 C 9.648438 -4.484375 9.789062 -4.390625 9.90625 -4.296875 C 10.019531 -4.210938 10.144531 -4.140625 10.28125 -4.078125 C 10.4375 -4.003906 10.554688 -3.898438 10.640625 -3.765625 C 10.703125 -3.691406 10.765625 -3.601562 10.828125 -3.5 C 10.898438 -3.394531 10.960938 -3.300781 11.015625 -3.21875 C 11.023438 -3.195312 11.03125 -3.175781 11.03125 -3.15625 C 11.039062 -3.144531 11.054688 -3.132812 11.078125 -3.125 C 11.117188 -2.945312 11.175781 -2.765625 11.25 -2.578125 C 11.320312 -2.398438 11.382812 -2.21875 11.4375 -2.03125 C 11.4375 -1.976562 11.445312 -1.910156 11.46875 -1.828125 C 11.488281 -1.753906 11.5 -1.675781 11.5 -1.59375 C 11.53125 -1.332031 11.421875 -1.125 11.171875 -0.96875 L 10.546875 -0.421875 C 10.484375 -0.335938 10.363281 -0.253906 10.1875 -0.171875 C 10.0625 -0.0976562 9.960938 -0.015625 9.890625 0.078125 C 9.722656 0.285156 9.570312 0.5 9.4375 0.71875 C 9.3125 0.945312 9.226562 1.1875 9.1875 1.4375 C 9.007812 2.207031 9.160156 2.9375 9.640625 3.625 C 9.703125 3.726562 9.773438 3.820312 9.859375 3.90625 C 9.953125 4 10.039062 4.097656 10.125 4.203125 C 10.101562 4.222656 10.109375 4.25 10.140625 4.28125 C 10.296875 4.34375 10.414062 4.414062 10.5 4.5 C 10.59375 4.59375 10.695312 4.679688 10.8125 4.765625 C 10.863281 4.804688 10.910156 4.847656 10.953125 4.890625 C 10.992188 4.929688 11.039062 4.972656 11.09375 5.015625 C 11.195312 5.085938 11.300781 5.15625 11.40625 5.21875 C 11.507812 5.289062 11.625 5.351562 11.75 5.40625 C 11.90625 5.476562 12.046875 5.566406 12.171875 5.671875 C 12.304688 5.785156 12.4375 5.878906 12.5625 5.953125 C 13.019531 6.242188 13.484375 6.273438 13.953125 6.046875 C 14.222656 5.921875 14.421875 5.695312 14.546875 5.375 C 14.679688 5.019531 14.71875 4.660156 14.65625 4.296875 C 14.550781 3.390625 14.28125 2.53125 13.84375 1.71875 C 13.769531 1.519531 13.695312 1.320312 13.625 1.125 C 13.5625 0.9375 13.476562 0.753906 13.375 0.578125 C 13.300781 0.410156 13.21875 0.238281 13.125 0.0625 C 13.039062 -0.113281 12.957031 -0.285156 12.875 -0.453125 L 12.03125 -2.21875 C 11.863281 -2.550781 11.707031 -2.882812 11.5625 -3.21875 C 11.414062 -3.550781 11.285156 -3.890625 11.171875 -4.234375 C 11.117188 -4.398438 11.046875 -4.554688 10.953125 -4.703125 C 10.867188 -4.859375 10.789062 -5.019531 10.71875 -5.1875 L 10.546875 -5.546875 C 10.472656 -5.765625 10.445312 -5.96875 10.46875 -6.15625 C 10.476562 -6.28125 10.46875 -6.382812 10.4375 -6.46875 C 10.40625 -6.5625 10.375 -6.660156 10.34375 -6.765625 C 10.3125 -6.960938 10.28125 -7.15625 10.25 -7.34375 C 10.226562 -7.539062 10.207031 -7.738281 10.1875 -7.9375 L 10.15625 -8.359375 C 10.164062 -8.765625 10.207031 -9.164062 10.28125 -9.5625 C 10.351562 -9.957031 10.484375 -10.34375 10.671875 -10.71875 C 10.722656 -10.8125 10.773438 -10.894531 10.828125 -10.96875 C 10.890625 -11.039062 10.953125 -11.117188 11.015625 -11.203125 C 11.066406 -11.273438 11.113281 -11.347656 11.15625 -11.421875 C 11.207031 -11.503906 11.242188 -11.59375 11.265625 -11.6875 C 11.390625 -11.90625 11.535156 -12.070312 11.703125 -12.1875 C 12.140625 -12.5625 12.632812 -12.859375 13.1875 -13.078125 C 13.320312 -13.140625 13.429688 -13.160156 13.515625 -13.140625 L 13.671875 -13.203125 C 13.984375 -13.304688 14.359375 -13.390625 14.796875 -13.453125 C 15.640625 -13.585938 16.476562 -13.578125 17.3125 -13.421875 C 17.96875 -13.335938 18.597656 -13.191406 19.203125 -12.984375 C 19.816406 -12.773438 20.425781 -12.53125 21.03125 -12.25 L 21.9375 -11.78125 C 22 -11.726562 22.078125 -11.691406 22.171875 -11.671875 C 22.410156 -11.585938 22.613281 -11.488281 22.78125 -11.375 C 22.957031 -11.257812 23.125 -11.132812 23.28125 -11 C 23.394531 -10.875 23.53125 -10.753906 23.6875 -10.640625 C 23.84375 -10.523438 23.96875 -10.398438 24.0625 -10.265625 C 24.238281 -10.109375 24.414062 -9.945312 24.59375 -9.78125 C 24.78125 -9.625 24.953125 -9.460938 25.109375 -9.296875 L 25.265625 -9.171875 C 25.535156 -9.109375 25.734375 -8.941406 25.859375 -8.671875 C 25.984375 -8.441406 26.125 -8.226562 26.28125 -8.03125 C 26.4375 -7.84375 26.570312 -7.644531 26.6875 -7.4375 C 26.84375 -7.15625 27 -6.878906 27.15625 -6.609375 C 27.320312 -6.335938 27.46875 -6.050781 27.59375 -5.75 C 27.632812 -5.632812 27.679688 -5.515625 27.734375 -5.390625 C 27.796875 -5.273438 27.863281 -5.164062 27.9375 -5.0625 C 28.101562 -4.800781 28.171875 -4.535156 28.140625 -4.265625 C 28.148438 -4.210938 28.15625 -4.15625 28.15625 -4.09375 C 28.164062 -4.03125 28.175781 -3.972656 28.1875 -3.921875 C 28.382812 -3.160156 28.40625 -2.390625 28.25 -1.609375 L 28.234375 -1.390625 C 28.234375 -1.097656 28.164062 -0.847656 28.03125 -0.640625 C 27.9375 -0.472656 27.832031 -0.3125 27.71875 -0.15625 C 27.601562 0 27.472656 0.140625 27.328125 0.265625 L 26.984375 0.5625 C 26.628906 0.863281 26.242188 1.078125 25.828125 1.203125 C 25.421875 1.335938 24.988281 1.414062 24.53125 1.4375 C 24.082031 1.4375 23.660156 1.359375 23.265625 1.203125 C 22.867188 1.046875 22.476562 0.84375 22.09375 0.59375 Z M 22.09375 0.59375 "/></g></g></g><g fill="#9b85cd" fill-opacity="1"><g transform="translate(64.93873, 207.101134)"><g><path d="M 6.203125 -1.1875 C 6.378906 -1.1875 6.523438 -1.125 6.640625 -1 C 6.753906 -0.882812 6.8125 -0.742188 6.8125 -0.578125 C 6.8125 -0.410156 6.753906 -0.269531 6.640625 -0.15625 C 6.523438 -0.0507812 6.378906 0 6.203125 0 L 1.6875 0 C 1.519531 0 1.375 -0.0546875 1.25 -0.171875 C 1.132812 -0.296875 1.078125 -0.445312 1.078125 -0.625 L 1.078125 -8.4375 C 1.078125 -8.601562 1.132812 -8.75 1.25 -8.875 C 1.375 -9 1.519531 -9.0625 1.6875 -9.0625 L 6.203125 -9.0625 C 6.378906 -9.0625 6.523438 -9.003906 6.640625 -8.890625 C 6.753906 -8.773438 6.8125 -8.628906 6.8125 -8.453125 C 6.8125 -8.273438 6.753906 -8.128906 6.640625 -8.015625 C 6.523438 -7.910156 6.378906 -7.859375 6.203125 -7.859375 L 2.359375 -7.859375 L 2.359375 -5.234375 L 5.609375 -5.234375 C 5.796875 -5.234375 5.945312 -5.175781 6.0625 -5.0625 C 6.175781 -4.945312 6.234375 -4.800781 6.234375 -4.625 C 6.234375 -4.445312 6.175781 -4.304688 6.0625 -4.203125 C 5.945312 -4.097656 5.796875 -4.046875 5.609375 -4.046875 L 2.359375 -4.046875 L 2.359375 -1.1875 Z M 6.203125 -1.1875 "/></g></g></g><g fill="#9b85cd" fill-opacity="1"><g transform="translate(73.024879, 207.101134)"><g><path d="M 3.8125 0.125 C 3.1875 0.125 2.628906 0.0351562 2.140625 -0.140625 C 1.660156 -0.316406 1.203125 -0.601562 0.765625 -1 C 0.578125 -1.15625 0.484375 -1.332031 0.484375 -1.53125 C 0.484375 -1.6875 0.546875 -1.828125 0.671875 -1.953125 C 0.796875 -2.078125 0.9375 -2.140625 1.09375 -2.140625 C 1.238281 -2.140625 1.363281 -2.09375 1.46875 -2 C 1.820312 -1.675781 2.179688 -1.4375 2.546875 -1.28125 C 2.910156 -1.132812 3.328125 -1.0625 3.796875 -1.0625 C 4.335938 -1.0625 4.796875 -1.1875 5.171875 -1.4375 C 5.546875 -1.6875 5.734375 -2 5.734375 -2.375 C 5.722656 -2.820312 5.535156 -3.171875 5.171875 -3.421875 C 4.804688 -3.671875 4.25 -3.875 3.5 -4.03125 C 2.601562 -4.21875 1.914062 -4.515625 1.4375 -4.921875 C 0.957031 -5.335938 0.71875 -5.914062 0.71875 -6.65625 C 0.71875 -7.15625 0.851562 -7.597656 1.125 -7.984375 C 1.394531 -8.367188 1.765625 -8.664062 2.234375 -8.875 C 2.710938 -9.082031 3.25 -9.1875 3.84375 -9.1875 C 4.375 -9.1875 4.875 -9.097656 5.34375 -8.921875 C 5.820312 -8.753906 6.207031 -8.523438 6.5 -8.234375 C 6.707031 -8.066406 6.8125 -7.882812 6.8125 -7.6875 C 6.8125 -7.53125 6.75 -7.390625 6.625 -7.265625 C 6.507812 -7.148438 6.367188 -7.09375 6.203125 -7.09375 C 6.085938 -7.09375 5.988281 -7.125 5.90625 -7.1875 C 5.6875 -7.414062 5.378906 -7.609375 4.984375 -7.765625 C 4.585938 -7.921875 4.207031 -8 3.84375 -8 C 3.257812 -8 2.796875 -7.878906 2.453125 -7.640625 C 2.117188 -7.398438 1.953125 -7.085938 1.953125 -6.703125 C 1.953125 -6.273438 2.117188 -5.945312 2.453125 -5.71875 C 2.796875 -5.5 3.304688 -5.3125 3.984375 -5.15625 C 4.660156 -5.007812 5.210938 -4.835938 5.640625 -4.640625 C 6.066406 -4.441406 6.394531 -4.164062 6.625 -3.8125 C 6.851562 -3.457031 6.96875 -3 6.96875 -2.4375 C 6.96875 -1.9375 6.828125 -1.488281 6.546875 -1.09375 C 6.265625 -0.707031 5.882812 -0.40625 5.40625 -0.1875 C 4.925781 0.0195312 4.394531 0.125 3.8125 0.125 Z M 3.8125 0.125 "/></g></g></g><g fill="#9b85cd" fill-opacity="1"><g transform="translate(81.266278, 207.101134)"><g><path d="M 6.953125 -9.0625 C 7.128906 -9.0625 7.273438 -9.003906 7.390625 -8.890625 C 7.503906 -8.785156 7.5625 -8.644531 7.5625 -8.46875 C 7.5625 -8.28125 7.503906 -8.132812 7.390625 -8.03125 C 7.273438 -7.925781 7.128906 -7.875 6.953125 -7.875 L 4.640625 -7.875 L 4.640625 -0.625 C 4.640625 -0.445312 4.578125 -0.296875 4.453125 -0.171875 C 4.328125 -0.0546875 4.171875 0 3.984375 0 C 3.796875 0 3.640625 -0.0546875 3.515625 -0.171875 C 3.390625 -0.296875 3.328125 -0.445312 3.328125 -0.625 L 3.328125 -7.875 L 1.03125 -7.875 C 0.851562 -7.875 0.703125 -7.925781 0.578125 -8.03125 C 0.460938 -8.144531 0.40625 -8.289062 0.40625 -8.46875 C 0.40625 -8.644531 0.460938 -8.785156 0.578125 -8.890625 C 0.703125 -9.003906 0.851562 -9.0625 1.03125 -9.0625 Z M 6.953125 -9.0625 "/></g></g></g><g fill="#9b85cd" fill-opacity="1"><g transform="translate(282.131457, 207.101134)"><g><path d="M 6.0625 -1.140625 C 6.21875 -1.140625 6.351562 -1.082031 6.46875 -0.96875 C 6.582031 -0.851562 6.640625 -0.71875 6.640625 -0.5625 C 6.640625 -0.394531 6.582031 -0.257812 6.46875 -0.15625 C 6.351562 -0.0507812 6.21875 0 6.0625 0 L 1.46875 0 C 1.289062 0 1.144531 -0.0507812 1.03125 -0.15625 C 0.914062 -0.269531 0.859375 -0.414062 0.859375 -0.59375 C 0.859375 -0.75 0.921875 -0.894531 1.046875 -1.03125 L 3.9375 -4.171875 C 4.738281 -5.023438 5.140625 -5.78125 5.140625 -6.4375 C 5.140625 -6.894531 4.984375 -7.273438 4.671875 -7.578125 C 4.367188 -7.890625 3.976562 -8.046875 3.5 -8.046875 C 3.1875 -8.046875 2.878906 -7.953125 2.578125 -7.765625 C 2.285156 -7.585938 2.050781 -7.332031 1.875 -7 C 1.738281 -6.820312 1.578125 -6.734375 1.390625 -6.734375 C 1.242188 -6.734375 1.101562 -6.785156 0.96875 -6.890625 C 0.84375 -7.003906 0.78125 -7.132812 0.78125 -7.28125 C 0.78125 -7.375 0.8125 -7.472656 0.875 -7.578125 C 0.9375 -7.679688 1.03125 -7.800781 1.15625 -7.9375 C 1.4375 -8.320312 1.796875 -8.625 2.234375 -8.84375 C 2.671875 -9.070312 3.117188 -9.1875 3.578125 -9.1875 C 4.148438 -9.1875 4.644531 -9.066406 5.0625 -8.828125 C 5.488281 -8.597656 5.816406 -8.28125 6.046875 -7.875 C 6.273438 -7.46875 6.390625 -7.003906 6.390625 -6.484375 C 6.390625 -5.492188 5.851562 -4.421875 4.78125 -3.265625 L 2.828125 -1.140625 Z M 6.0625 -1.140625 "/></g></g></g><g fill="#9b85cd" fill-opacity="1"><g transform="translate(289.945923, 207.101134)"><g><path d="M 3.921875 0.125 C 3.210938 0.125 2.609375 -0.0703125 2.109375 -0.46875 C 1.609375 -0.863281 1.226562 -1.410156 0.96875 -2.109375 C 0.71875 -2.804688 0.59375 -3.613281 0.59375 -4.53125 C 0.59375 -5.445312 0.71875 -6.253906 0.96875 -6.953125 C 1.226562 -7.648438 1.609375 -8.195312 2.109375 -8.59375 C 2.609375 -8.988281 3.210938 -9.1875 3.921875 -9.1875 C 4.628906 -9.1875 5.234375 -8.988281 5.734375 -8.59375 C 6.234375 -8.195312 6.609375 -7.648438 6.859375 -6.953125 C 7.117188 -6.253906 7.25 -5.445312 7.25 -4.53125 C 7.25 -3.613281 7.117188 -2.804688 6.859375 -2.109375 C 6.609375 -1.410156 6.234375 -0.863281 5.734375 -0.46875 C 5.234375 -0.0703125 4.628906 0.125 3.921875 0.125 Z M 3.921875 -1.109375 C 4.546875 -1.109375 5.03125 -1.40625 5.375 -2 C 5.726562 -2.59375 5.90625 -3.4375 5.90625 -4.53125 C 5.90625 -5.613281 5.726562 -6.453125 5.375 -7.046875 C 5.03125 -7.640625 4.546875 -7.9375 3.921875 -7.9375 C 3.285156 -7.9375 2.789062 -7.640625 2.4375 -7.046875 C 2.09375 -6.453125 1.921875 -5.613281 1.921875 -4.53125 C 1.921875 -3.4375 2.09375 -2.59375 2.4375 -2 C 2.789062 -1.40625 3.285156 -1.109375 3.921875 -1.109375 Z M 3.921875 -1.109375 "/></g></g></g><g fill="#9b85cd" fill-opacity="1"><g transform="translate(298.497823, 207.101134)"><g><path d="M 6.0625 -1.140625 C 6.21875 -1.140625 6.351562 -1.082031 6.46875 -0.96875 C 6.582031 -0.851562 6.640625 -0.71875 6.640625 -0.5625 C 6.640625 -0.394531 6.582031 -0.257812 6.46875 -0.15625 C 6.351562 -0.0507812 6.21875 0 6.0625 0 L 1.46875 0 C 1.289062 0 1.144531 -0.0507812 1.03125 -0.15625 C 0.914062 -0.269531 0.859375 -0.414062 0.859375 -0.59375 C 0.859375 -0.75 0.921875 -0.894531 1.046875 -1.03125 L 3.9375 -4.171875 C 4.738281 -5.023438 5.140625 -5.78125 5.140625 -6.4375 C 5.140625 -6.894531 4.984375 -7.273438 4.671875 -7.578125 C 4.367188 -7.890625 3.976562 -8.046875 3.5 -8.046875 C 3.1875 -8.046875 2.878906 -7.953125 2.578125 -7.765625 C 2.285156 -7.585938 2.050781 -7.332031 1.875 -7 C 1.738281 -6.820312 1.578125 -6.734375 1.390625 -6.734375 C 1.242188 -6.734375 1.101562 -6.785156 0.96875 -6.890625 C 0.84375 -7.003906 0.78125 -7.132812 0.78125 -7.28125 C 0.78125 -7.375 0.8125 -7.472656 0.875 -7.578125 C 0.9375 -7.679688 1.03125 -7.800781 1.15625 -7.9375 C 1.4375 -8.320312 1.796875 -8.625 2.234375 -8.84375 C 2.671875 -9.070312 3.117188 -9.1875 3.578125 -9.1875 C 4.148438 -9.1875 4.644531 -9.066406 5.0625 -8.828125 C 5.488281 -8.597656 5.816406 -8.28125 6.046875 -7.875 C 6.273438 -7.46875 6.390625 -7.003906 6.390625 -6.484375 C 6.390625 -5.492188 5.851562 -4.421875 4.78125 -3.265625 L 2.828125 -1.140625 Z M 6.0625 -1.140625 "/></g></g></g><g fill="#9b85cd" fill-opacity="1"><g transform="translate(306.312289, 207.101134)"><g><path d="M 3.4375 -6.0625 C 4 -6.0625 4.507812 -5.929688 4.96875 -5.671875 C 5.425781 -5.421875 5.785156 -5.066406 6.046875 -4.609375 C 6.304688 -4.160156 6.4375 -3.65625 6.4375 -3.09375 C 6.4375 -2.5 6.28125 -1.957031 5.96875 -1.46875 C 5.664062 -0.988281 5.25 -0.609375 4.71875 -0.328125 C 4.1875 -0.046875 3.601562 0.09375 2.96875 0.09375 C 2.613281 0.09375 2.257812 0.0351562 1.90625 -0.078125 C 1.5625 -0.191406 1.265625 -0.347656 1.015625 -0.546875 C 0.929688 -0.609375 0.863281 -0.695312 0.8125 -0.8125 C 0.757812 -0.925781 0.734375 -1.039062 0.734375 -1.15625 C 0.734375 -1.28125 0.785156 -1.394531 0.890625 -1.5 C 1.003906 -1.613281 1.144531 -1.671875 1.3125 -1.671875 C 1.425781 -1.671875 1.578125 -1.601562 1.765625 -1.46875 C 2.160156 -1.1875 2.5625 -1.046875 2.96875 -1.046875 C 3.375 -1.046875 3.75 -1.132812 4.09375 -1.3125 C 4.4375 -1.5 4.707031 -1.742188 4.90625 -2.046875 C 5.101562 -2.359375 5.203125 -2.703125 5.203125 -3.078125 C 5.203125 -3.628906 5.019531 -4.070312 4.65625 -4.40625 C 4.289062 -4.75 3.832031 -4.921875 3.28125 -4.921875 C 3.050781 -4.921875 2.847656 -4.890625 2.671875 -4.828125 C 2.492188 -4.765625 2.28125 -4.671875 2.03125 -4.546875 C 1.925781 -4.492188 1.820312 -4.445312 1.71875 -4.40625 C 1.625 -4.375 1.539062 -4.359375 1.46875 -4.359375 C 1.21875 -4.359375 1.03125 -4.429688 0.90625 -4.578125 C 0.789062 -4.722656 0.734375 -4.890625 0.734375 -5.078125 L 0.75 -5.21875 L 1.21875 -8.5625 C 1.238281 -8.695312 1.304688 -8.8125 1.421875 -8.90625 C 1.546875 -9.007812 1.6875 -9.0625 1.84375 -9.0625 L 5.65625 -9.0625 C 5.820312 -9.0625 5.957031 -9.003906 6.0625 -8.890625 C 6.164062 -8.773438 6.21875 -8.632812 6.21875 -8.46875 C 6.21875 -8.3125 6.164062 -8.175781 6.0625 -8.0625 C 5.957031 -7.957031 5.820312 -7.90625 5.65625 -7.90625 L 2.28125 -7.90625 L 1.9375 -5.6875 C 2.125 -5.789062 2.351562 -5.878906 2.625 -5.953125 C 2.90625 -6.023438 3.175781 -6.0625 3.4375 -6.0625 Z M 3.4375 -6.0625 "/></g></g></g></svg>